<mxfile host="app.diagrams.net" modified="2021-09-29T22:45:54.591Z" agent="5.0 (Windows NT 10.0; Win64; x64) AppleWebKit/537.36 (KHTML, like Gecko) Chrome/95.0.4613.0 Safari/537.36 Edg/95.0.1000.0" etag="yTbF3ddDEKzi3fOcQ_95" version="15.3.7" type="github">
  <diagram id="lKzk2_0ynHi-unKyOD1F" name="Page-1">
    <mxGraphModel dx="1227" dy="960" grid="0" gridSize="10" guides="0" tooltips="1" connect="1" arrows="1" fold="1" page="0" pageScale="1" pageWidth="1100" pageHeight="850" math="0" shadow="0">
      <root>
        <mxCell id="0" />
        <mxCell id="1" parent="0" />
        <mxCell id="wZwStunDBRkNG8TW0eKS-1" value="Identity Management&lt;br&gt;AWS Cognito, Social Identity" style="rounded=0;whiteSpace=wrap;html=1;" vertex="1" parent="1">
          <mxGeometry x="142" y="5" width="200" height="80" as="geometry" />
        </mxCell>
        <mxCell id="wZwStunDBRkNG8TW0eKS-4" value="Image Store as CDN Backend" style="sketch=0;points=[[0,0,0],[0.25,0,0],[0.5,0,0],[0.75,0,0],[1,0,0],[0,1,0],[0.25,1,0],[0.5,1,0],[0.75,1,0],[1,1,0],[0,0.25,0],[0,0.5,0],[0,0.75,0],[1,0.25,0],[1,0.5,0],[1,0.75,0]];outlineConnect=0;fontColor=#232F3E;gradientColor=#60A337;gradientDirection=north;fillColor=#277116;strokeColor=#ffffff;dashed=0;verticalLabelPosition=top;verticalAlign=bottom;align=center;html=1;fontSize=12;fontStyle=0;aspect=fixed;shape=mxgraph.aws4.resourceIcon;resIcon=mxgraph.aws4.s3;labelPosition=center;" vertex="1" parent="1">
          <mxGeometry x="1064" y="284" width="40" height="40" as="geometry" />
        </mxCell>
        <mxCell id="wZwStunDBRkNG8TW0eKS-9" value="" style="sketch=0;points=[[0,0,0],[0.25,0,0],[0.5,0,0],[0.75,0,0],[1,0,0],[0,1,0],[0.25,1,0],[0.5,1,0],[0.75,1,0],[1,1,0],[0,0.25,0],[0,0.5,0],[0,0.75,0],[1,0.25,0],[1,0.5,0],[1,0.75,0]];outlineConnect=0;fontColor=#232F3E;gradientColor=#F54749;gradientDirection=north;fillColor=#C7131F;strokeColor=#ffffff;dashed=0;verticalLabelPosition=bottom;verticalAlign=top;align=center;html=1;fontSize=12;fontStyle=0;aspect=fixed;shape=mxgraph.aws4.resourceIcon;resIcon=mxgraph.aws4.cognito;" vertex="1" parent="1">
          <mxGeometry x="313" y="4" width="29" height="29" as="geometry" />
        </mxCell>
        <mxCell id="wZwStunDBRkNG8TW0eKS-18" value="Signup/Signin" style="edgeStyle=orthogonalEdgeStyle;rounded=0;orthogonalLoop=1;jettySize=auto;html=1;entryX=0;entryY=0.5;entryDx=0;entryDy=0;exitX=0.25;exitY=0;exitDx=0;exitDy=0;" edge="1" parent="1" source="wZwStunDBRkNG8TW0eKS-50" target="wZwStunDBRkNG8TW0eKS-1">
          <mxGeometry x="0.4627" y="10" relative="1" as="geometry">
            <mxPoint x="75" y="240" as="sourcePoint" />
            <Array as="points">
              <mxPoint x="70" y="45" />
            </Array>
            <mxPoint as="offset" />
          </mxGeometry>
        </mxCell>
        <mxCell id="wZwStunDBRkNG8TW0eKS-15" style="edgeStyle=orthogonalEdgeStyle;rounded=0;orthogonalLoop=1;jettySize=auto;html=1;entryX=0;entryY=0.25;entryDx=0;entryDy=0;entryPerimeter=0;exitX=0.5;exitY=0;exitDx=0;exitDy=0;" edge="1" parent="1" source="wZwStunDBRkNG8TW0eKS-50" target="wZwStunDBRkNG8TW0eKS-13">
          <mxGeometry relative="1" as="geometry">
            <mxPoint x="220" y="355" as="targetPoint" />
            <Array as="points">
              <mxPoint x="100" y="115" />
              <mxPoint x="320" y="115" />
            </Array>
          </mxGeometry>
        </mxCell>
        <mxCell id="wZwStunDBRkNG8TW0eKS-53" value="Update" style="edgeLabel;html=1;align=center;verticalAlign=middle;resizable=0;points=[];" vertex="1" connectable="0" parent="wZwStunDBRkNG8TW0eKS-15">
          <mxGeometry x="0.1339" y="2" relative="1" as="geometry">
            <mxPoint x="3" y="-6" as="offset" />
          </mxGeometry>
        </mxCell>
        <mxCell id="wZwStunDBRkNG8TW0eKS-27" value="Profile Data" style="sketch=0;points=[[0,0,0],[0.25,0,0],[0.5,0,0],[0.75,0,0],[1,0,0],[0,1,0],[0.25,1,0],[0.5,1,0],[0.75,1,0],[1,1,0],[0,0.25,0],[0,0.5,0],[0,0.75,0],[1,0.25,0],[1,0.5,0],[1,0.75,0]];outlineConnect=0;fontColor=#232F3E;gradientColor=#4D72F3;gradientDirection=north;fillColor=#3334B9;strokeColor=#ffffff;dashed=0;verticalLabelPosition=bottom;verticalAlign=top;align=center;html=1;fontSize=12;fontStyle=0;aspect=fixed;shape=mxgraph.aws4.resourceIcon;resIcon=mxgraph.aws4.dynamodb;" vertex="1" parent="1">
          <mxGeometry x="789" y="137" width="40" height="40" as="geometry" />
        </mxCell>
        <mxCell id="wZwStunDBRkNG8TW0eKS-31" value="" style="group" vertex="1" connectable="0" parent="1">
          <mxGeometry x="484" y="537" width="89.00000000000001" height="70" as="geometry" />
        </mxCell>
        <mxCell id="wZwStunDBRkNG8TW0eKS-23" value="Pet&lt;br&gt;Sighting&lt;br&gt;API" style="whiteSpace=wrap;html=1;aspect=fixed;fillColor=#dae8fc;strokeColor=#6c8ebf;" vertex="1" parent="wZwStunDBRkNG8TW0eKS-31">
          <mxGeometry x="19" width="70" height="70" as="geometry" />
        </mxCell>
        <mxCell id="wZwStunDBRkNG8TW0eKS-29" value="" style="sketch=0;points=[[0,0,0],[0.25,0,0],[0.5,0,0],[0.75,0,0],[1,0,0],[0,1,0],[0.25,1,0],[0.5,1,0],[0.75,1,0],[1,1,0],[0,0.25,0],[0,0.5,0],[0,0.75,0],[1,0.25,0],[1,0.5,0],[1,0.75,0]];outlineConnect=0;fontColor=#232F3E;gradientColor=#945DF2;gradientDirection=north;fillColor=#5A30B5;strokeColor=#ffffff;dashed=0;verticalLabelPosition=bottom;verticalAlign=top;align=center;html=1;fontSize=12;fontStyle=0;aspect=fixed;shape=mxgraph.aws4.resourceIcon;resIcon=mxgraph.aws4.elastic_load_balancing;" vertex="1" parent="wZwStunDBRkNG8TW0eKS-31">
          <mxGeometry y="20" width="30" height="30" as="geometry" />
        </mxCell>
        <mxCell id="wZwStunDBRkNG8TW0eKS-40" value="" style="sketch=0;pointerEvents=1;shadow=0;dashed=0;html=1;strokeColor=none;fillColor=#505050;labelPosition=center;verticalLabelPosition=bottom;verticalAlign=top;outlineConnect=0;align=center;shape=mxgraph.office.security.lock_protected;" vertex="1" parent="wZwStunDBRkNG8TW0eKS-31">
          <mxGeometry x="73.67000000000002" y="2" width="13.33" height="20" as="geometry" />
        </mxCell>
        <mxCell id="wZwStunDBRkNG8TW0eKS-32" value="" style="group" vertex="1" connectable="0" parent="1">
          <mxGeometry x="484" y="367" width="89.5" height="70" as="geometry" />
        </mxCell>
        <mxCell id="wZwStunDBRkNG8TW0eKS-22" value="Missing&lt;br&gt;Pet&amp;nbsp;&lt;br&gt;Search&lt;br&gt;API" style="whiteSpace=wrap;html=1;aspect=fixed;fillColor=#dae8fc;strokeColor=#6c8ebf;" vertex="1" parent="wZwStunDBRkNG8TW0eKS-32">
          <mxGeometry x="19.5" width="70" height="70" as="geometry" />
        </mxCell>
        <mxCell id="wZwStunDBRkNG8TW0eKS-28" value="" style="sketch=0;points=[[0,0,0],[0.25,0,0],[0.5,0,0],[0.75,0,0],[1,0,0],[0,1,0],[0.25,1,0],[0.5,1,0],[0.75,1,0],[1,1,0],[0,0.25,0],[0,0.5,0],[0,0.75,0],[1,0.25,0],[1,0.5,0],[1,0.75,0]];outlineConnect=0;fontColor=#232F3E;gradientColor=#945DF2;gradientDirection=north;fillColor=#5A30B5;strokeColor=#ffffff;dashed=0;verticalLabelPosition=bottom;verticalAlign=top;align=center;html=1;fontSize=12;fontStyle=0;aspect=fixed;shape=mxgraph.aws4.resourceIcon;resIcon=mxgraph.aws4.elastic_load_balancing;" vertex="1" parent="wZwStunDBRkNG8TW0eKS-32">
          <mxGeometry y="20" width="30" height="30" as="geometry" />
        </mxCell>
        <mxCell id="wZwStunDBRkNG8TW0eKS-33" value="" style="group" vertex="1" connectable="0" parent="1">
          <mxGeometry x="485" y="87" width="89.00000000000001" height="70" as="geometry" />
        </mxCell>
        <mxCell id="wZwStunDBRkNG8TW0eKS-21" value="User&lt;br&gt;Profile &lt;br&gt;API" style="whiteSpace=wrap;html=1;aspect=fixed;fillColor=#dae8fc;strokeColor=#6c8ebf;" vertex="1" parent="wZwStunDBRkNG8TW0eKS-33">
          <mxGeometry x="19" width="70" height="70" as="geometry" />
        </mxCell>
        <mxCell id="wZwStunDBRkNG8TW0eKS-13" value="" style="sketch=0;points=[[0,0,0],[0.25,0,0],[0.5,0,0],[0.75,0,0],[1,0,0],[0,1,0],[0.25,1,0],[0.5,1,0],[0.75,1,0],[1,1,0],[0,0.25,0],[0,0.5,0],[0,0.75,0],[1,0.25,0],[1,0.5,0],[1,0.75,0]];outlineConnect=0;fontColor=#232F3E;gradientColor=#945DF2;gradientDirection=north;fillColor=#5A30B5;strokeColor=#ffffff;dashed=0;verticalLabelPosition=bottom;verticalAlign=top;align=center;html=1;fontSize=12;fontStyle=0;aspect=fixed;shape=mxgraph.aws4.resourceIcon;resIcon=mxgraph.aws4.elastic_load_balancing;" vertex="1" parent="wZwStunDBRkNG8TW0eKS-33">
          <mxGeometry y="20" width="30" height="30" as="geometry" />
        </mxCell>
        <mxCell id="wZwStunDBRkNG8TW0eKS-39" value="" style="sketch=0;pointerEvents=1;shadow=0;dashed=0;html=1;strokeColor=none;fillColor=#505050;labelPosition=center;verticalLabelPosition=bottom;verticalAlign=top;outlineConnect=0;align=center;shape=mxgraph.office.security.lock_protected;" vertex="1" parent="wZwStunDBRkNG8TW0eKS-33">
          <mxGeometry x="73.67000000000002" y="2" width="13.33" height="20" as="geometry" />
        </mxCell>
        <mxCell id="wZwStunDBRkNG8TW0eKS-34" value="" style="group" vertex="1" connectable="0" parent="1">
          <mxGeometry x="484" y="217" width="89.50000000000001" height="70" as="geometry" />
        </mxCell>
        <mxCell id="wZwStunDBRkNG8TW0eKS-35" value="Missing&lt;br&gt;Pet&lt;br&gt;Report&lt;br&gt;API" style="whiteSpace=wrap;html=1;aspect=fixed;fillColor=#dae8fc;strokeColor=#6c8ebf;" vertex="1" parent="wZwStunDBRkNG8TW0eKS-34">
          <mxGeometry x="19.5" width="70" height="70" as="geometry" />
        </mxCell>
        <mxCell id="wZwStunDBRkNG8TW0eKS-36" value="" style="sketch=0;points=[[0,0,0],[0.25,0,0],[0.5,0,0],[0.75,0,0],[1,0,0],[0,1,0],[0.25,1,0],[0.5,1,0],[0.75,1,0],[1,1,0],[0,0.25,0],[0,0.5,0],[0,0.75,0],[1,0.25,0],[1,0.5,0],[1,0.75,0]];outlineConnect=0;fontColor=#232F3E;gradientColor=#945DF2;gradientDirection=north;fillColor=#5A30B5;strokeColor=#ffffff;dashed=0;verticalLabelPosition=bottom;verticalAlign=top;align=center;html=1;fontSize=12;fontStyle=0;aspect=fixed;shape=mxgraph.aws4.resourceIcon;resIcon=mxgraph.aws4.elastic_load_balancing;" vertex="1" parent="wZwStunDBRkNG8TW0eKS-34">
          <mxGeometry y="20" width="30" height="30" as="geometry" />
        </mxCell>
        <mxCell id="wZwStunDBRkNG8TW0eKS-41" value="" style="sketch=0;pointerEvents=1;shadow=0;dashed=0;html=1;strokeColor=none;fillColor=#505050;labelPosition=center;verticalLabelPosition=bottom;verticalAlign=top;outlineConnect=0;align=center;shape=mxgraph.office.security.lock_protected;" vertex="1" parent="wZwStunDBRkNG8TW0eKS-34">
          <mxGeometry x="75.17000000000002" y="2" width="13.33" height="20" as="geometry" />
        </mxCell>
        <mxCell id="wZwStunDBRkNG8TW0eKS-48" value="Update Profiles" style="edgeStyle=orthogonalEdgeStyle;rounded=0;orthogonalLoop=1;jettySize=auto;html=1;entryX=0;entryY=0.5;entryDx=0;entryDy=0;entryPerimeter=0;exitX=1;exitY=0.5;exitDx=0;exitDy=0;" edge="1" parent="1" source="wZwStunDBRkNG8TW0eKS-21" target="wZwStunDBRkNG8TW0eKS-56">
          <mxGeometry x="0.4182" y="20" relative="1" as="geometry">
            <mxPoint x="584" y="122" as="sourcePoint" />
            <mxPoint x="-10" y="3" as="offset" />
          </mxGeometry>
        </mxCell>
        <mxCell id="wZwStunDBRkNG8TW0eKS-52" value="" style="group" vertex="1" connectable="0" parent="1">
          <mxGeometry x="40" y="315" width="120" height="200" as="geometry" />
        </mxCell>
        <mxCell id="wZwStunDBRkNG8TW0eKS-50" value="Clients" style="rounded=0;whiteSpace=wrap;html=1;labelPosition=center;verticalLabelPosition=bottom;align=center;verticalAlign=top;" vertex="1" parent="wZwStunDBRkNG8TW0eKS-52">
          <mxGeometry width="120" height="200" as="geometry" />
        </mxCell>
        <mxCell id="wZwStunDBRkNG8TW0eKS-11" value="Mobile App" style="shape=image;html=1;verticalAlign=top;verticalLabelPosition=bottom;labelBackgroundColor=#ffffff;imageAspect=0;aspect=fixed;image=https://cdn4.iconfinder.com/data/icons/desktop-app-free/32/Desktop_Desktop_App_Smartphone_Phone_Android-09-128.png" vertex="1" parent="wZwStunDBRkNG8TW0eKS-52">
          <mxGeometry x="35" y="120" width="50" height="50" as="geometry" />
        </mxCell>
        <mxCell id="wZwStunDBRkNG8TW0eKS-6" value="Website&lt;br&gt;CDN" style="sketch=0;points=[[0,0,0],[0.25,0,0],[0.5,0,0],[0.75,0,0],[1,0,0],[0,1,0],[0.25,1,0],[0.5,1,0],[0.75,1,0],[1,1,0],[0,0.25,0],[0,0.5,0],[0,0.75,0],[1,0.25,0],[1,0.5,0],[1,0.75,0]];outlineConnect=0;fontColor=#232F3E;gradientColor=#945DF2;gradientDirection=north;fillColor=#5A30B5;strokeColor=#ffffff;dashed=0;verticalLabelPosition=bottom;verticalAlign=top;align=center;html=1;fontSize=12;fontStyle=0;aspect=fixed;shape=mxgraph.aws4.resourceIcon;resIcon=mxgraph.aws4.cloudfront;" vertex="1" parent="wZwStunDBRkNG8TW0eKS-52">
          <mxGeometry x="35" y="20" width="50" height="50" as="geometry" />
        </mxCell>
        <mxCell id="wZwStunDBRkNG8TW0eKS-56" value="" style="sketch=0;points=[[0,0,0],[0.25,0,0],[0.5,0,0],[0.75,0,0],[1,0,0],[0,1,0],[0.25,1,0],[0.5,1,0],[0.75,1,0],[1,1,0],[0,0.25,0],[0,0.5,0],[0,0.75,0],[1,0.25,0],[1,0.5,0],[1,0.75,0]];outlineConnect=0;fontColor=#232F3E;gradientColor=#FF4F8B;gradientDirection=north;fillColor=#BC1356;strokeColor=#ffffff;dashed=0;verticalLabelPosition=bottom;verticalAlign=top;align=center;html=1;fontSize=12;fontStyle=0;aspect=fixed;shape=mxgraph.aws4.resourceIcon;resIcon=mxgraph.aws4.sqs;" vertex="1" parent="1">
          <mxGeometry x="654" y="42" width="45" height="45" as="geometry" />
        </mxCell>
        <mxCell id="wZwStunDBRkNG8TW0eKS-62" value="Subscribe" style="edgeStyle=orthogonalEdgeStyle;rounded=0;orthogonalLoop=1;jettySize=auto;html=1;" edge="1" parent="1" target="wZwStunDBRkNG8TW0eKS-56">
          <mxGeometry x="0.0667" y="13" relative="1" as="geometry">
            <mxPoint x="774" y="64.5" as="sourcePoint" />
            <mxPoint as="offset" />
          </mxGeometry>
        </mxCell>
        <mxCell id="wZwStunDBRkNG8TW0eKS-141" value="" style="edgeStyle=orthogonalEdgeStyle;rounded=0;orthogonalLoop=1;jettySize=auto;html=1;" edge="1" parent="1" source="wZwStunDBRkNG8TW0eKS-58" target="wZwStunDBRkNG8TW0eKS-56">
          <mxGeometry relative="1" as="geometry" />
        </mxCell>
        <mxCell id="wZwStunDBRkNG8TW0eKS-58" value="User&lt;br&gt;Profile &lt;br&gt;Processor" style="whiteSpace=wrap;html=1;aspect=fixed;fillColor=#dae8fc;strokeColor=#6c8ebf;" vertex="1" parent="1">
          <mxGeometry x="775" y="29" width="70" height="70" as="geometry" />
        </mxCell>
        <mxCell id="wZwStunDBRkNG8TW0eKS-64" style="edgeStyle=orthogonalEdgeStyle;rounded=0;orthogonalLoop=1;jettySize=auto;html=1;exitX=0.75;exitY=0;exitDx=0;exitDy=0;entryX=0;entryY=0.75;entryDx=0;entryDy=0;entryPerimeter=0;" edge="1" parent="1" source="wZwStunDBRkNG8TW0eKS-50" target="wZwStunDBRkNG8TW0eKS-13">
          <mxGeometry relative="1" as="geometry" />
        </mxCell>
        <mxCell id="wZwStunDBRkNG8TW0eKS-65" value="Read" style="edgeLabel;html=1;align=center;verticalAlign=middle;resizable=0;points=[];" vertex="1" connectable="0" parent="wZwStunDBRkNG8TW0eKS-64">
          <mxGeometry x="-0.1495" y="-2" relative="1" as="geometry">
            <mxPoint y="6" as="offset" />
          </mxGeometry>
        </mxCell>
        <mxCell id="wZwStunDBRkNG8TW0eKS-66" value="Read Profile" style="edgeStyle=orthogonalEdgeStyle;rounded=0;orthogonalLoop=1;jettySize=auto;html=1;exitX=1;exitY=0.75;exitDx=0;exitDy=0;entryX=0;entryY=0.5;entryDx=0;entryDy=0;entryPerimeter=0;" edge="1" parent="1" source="wZwStunDBRkNG8TW0eKS-21" target="wZwStunDBRkNG8TW0eKS-71">
          <mxGeometry x="0.1273" y="-14" relative="1" as="geometry">
            <mxPoint x="-10" y="-4" as="offset" />
          </mxGeometry>
        </mxCell>
        <mxCell id="wZwStunDBRkNG8TW0eKS-67" value="Data Store &lt;br&gt;with GeoSpatial Capability&amp;nbsp;" style="sketch=0;points=[[0,0,0],[0.25,0,0],[0.5,0,0],[0.75,0,0],[1,0,0],[0,1,0],[0.25,1,0],[0.5,1,0],[0.75,1,0],[1,1,0],[0,0.25,0],[0,0.5,0],[0,0.75,0],[1,0.25,0],[1,0.5,0],[1,0.75,0]];outlineConnect=0;fontColor=#232F3E;gradientColor=#4D72F3;gradientDirection=north;fillColor=#3334B9;strokeColor=#ffffff;dashed=0;verticalLabelPosition=bottom;verticalAlign=top;align=center;html=1;fontSize=12;fontStyle=0;aspect=fixed;shape=mxgraph.aws4.resourceIcon;resIcon=mxgraph.aws4.database;" vertex="1" parent="1">
          <mxGeometry x="1064" y="382" width="40" height="40" as="geometry" />
        </mxCell>
        <mxCell id="wZwStunDBRkNG8TW0eKS-68" value="Missing Pet Queue" style="sketch=0;points=[[0,0,0],[0.25,0,0],[0.5,0,0],[0.75,0,0],[1,0,0],[0,1,0],[0.25,1,0],[0.5,1,0],[0.75,1,0],[1,1,0],[0,0.25,0],[0,0.5,0],[0,0.75,0],[1,0.25,0],[1,0.5,0],[1,0.75,0]];outlineConnect=0;fontColor=#232F3E;gradientColor=#FF4F8B;gradientDirection=north;fillColor=#BC1356;strokeColor=#ffffff;dashed=0;verticalLabelPosition=bottom;verticalAlign=top;align=center;html=1;fontSize=12;fontStyle=0;aspect=fixed;shape=mxgraph.aws4.resourceIcon;resIcon=mxgraph.aws4.sqs;" vertex="1" parent="1">
          <mxGeometry x="654" y="229.5" width="45" height="45" as="geometry" />
        </mxCell>
        <mxCell id="wZwStunDBRkNG8TW0eKS-69" value="Report Missing Pet" style="edgeStyle=orthogonalEdgeStyle;rounded=0;orthogonalLoop=1;jettySize=auto;html=1;exitX=1;exitY=0.25;exitDx=0;exitDy=0;entryX=0;entryY=0.5;entryDx=0;entryDy=0;entryPerimeter=0;" edge="1" parent="1" source="wZwStunDBRkNG8TW0eKS-50" target="wZwStunDBRkNG8TW0eKS-36">
          <mxGeometry x="0.0476" y="15" relative="1" as="geometry">
            <mxPoint as="offset" />
          </mxGeometry>
        </mxCell>
        <mxCell id="wZwStunDBRkNG8TW0eKS-63" value="Update &amp;amp; Refresh Cache" style="edgeStyle=orthogonalEdgeStyle;rounded=0;orthogonalLoop=1;jettySize=auto;html=1;entryX=1;entryY=0.5;entryDx=0;entryDy=0;entryPerimeter=0;" edge="1" parent="1" source="wZwStunDBRkNG8TW0eKS-58" target="wZwStunDBRkNG8TW0eKS-27">
          <mxGeometry relative="1" as="geometry">
            <mxPoint x="844" y="64.5" as="sourcePoint" />
            <mxPoint x="878" y="167" as="targetPoint" />
            <Array as="points">
              <mxPoint x="874" y="65" />
              <mxPoint x="874" y="157" />
            </Array>
          </mxGeometry>
        </mxCell>
        <mxCell id="wZwStunDBRkNG8TW0eKS-72" value="" style="edgeStyle=orthogonalEdgeStyle;rounded=0;orthogonalLoop=1;jettySize=auto;html=1;" edge="1" parent="1" source="wZwStunDBRkNG8TW0eKS-71" target="wZwStunDBRkNG8TW0eKS-27">
          <mxGeometry relative="1" as="geometry" />
        </mxCell>
        <mxCell id="wZwStunDBRkNG8TW0eKS-71" value="Cache" style="sketch=0;points=[[0,0,0],[0.25,0,0],[0.5,0,0],[0.75,0,0],[1,0,0],[0,1,0],[0.25,1,0],[0.5,1,0],[0.75,1,0],[1,1,0],[0,0.25,0],[0,0.5,0],[0,0.75,0],[1,0.25,0],[1,0.5,0],[1,0.75,0]];outlineConnect=0;fontColor=#232F3E;gradientColor=#4D72F3;gradientDirection=north;fillColor=#3334B9;strokeColor=#ffffff;dashed=0;verticalLabelPosition=bottom;verticalAlign=top;align=center;html=1;fontSize=12;fontStyle=0;aspect=fixed;shape=mxgraph.aws4.resourceIcon;resIcon=mxgraph.aws4.elasticache;" vertex="1" parent="1">
          <mxGeometry x="694" y="137" width="40" height="40" as="geometry" />
        </mxCell>
        <mxCell id="wZwStunDBRkNG8TW0eKS-73" value="Missing Pet&lt;br&gt;Record" style="edgeStyle=orthogonalEdgeStyle;rounded=0;orthogonalLoop=1;jettySize=auto;html=1;" edge="1" parent="1" source="wZwStunDBRkNG8TW0eKS-35" target="wZwStunDBRkNG8TW0eKS-68">
          <mxGeometry x="0.0062" y="15" relative="1" as="geometry">
            <mxPoint x="1" as="offset" />
          </mxGeometry>
        </mxCell>
        <mxCell id="wZwStunDBRkNG8TW0eKS-76" value="Subscribe" style="edgeStyle=orthogonalEdgeStyle;rounded=0;orthogonalLoop=1;jettySize=auto;html=1;" edge="1" parent="1" source="wZwStunDBRkNG8TW0eKS-74" target="wZwStunDBRkNG8TW0eKS-68">
          <mxGeometry x="-0.2432" y="-15" relative="1" as="geometry">
            <mxPoint as="offset" />
          </mxGeometry>
        </mxCell>
        <mxCell id="wZwStunDBRkNG8TW0eKS-77" style="edgeStyle=orthogonalEdgeStyle;rounded=0;orthogonalLoop=1;jettySize=auto;html=1;exitX=1;exitY=0.75;exitDx=0;exitDy=0;entryX=0.5;entryY=0;entryDx=0;entryDy=0;entryPerimeter=0;" edge="1" parent="1" source="wZwStunDBRkNG8TW0eKS-74" target="wZwStunDBRkNG8TW0eKS-67">
          <mxGeometry relative="1" as="geometry">
            <Array as="points">
              <mxPoint x="1084" y="340" />
            </Array>
          </mxGeometry>
        </mxCell>
        <mxCell id="wZwStunDBRkNG8TW0eKS-80" value="Missing Pet" style="edgeLabel;html=1;align=center;verticalAlign=middle;resizable=0;points=[];" vertex="1" connectable="0" parent="wZwStunDBRkNG8TW0eKS-77">
          <mxGeometry x="0.1601" y="-2" relative="1" as="geometry">
            <mxPoint x="-51" y="6" as="offset" />
          </mxGeometry>
        </mxCell>
        <mxCell id="wZwStunDBRkNG8TW0eKS-78" style="edgeStyle=orthogonalEdgeStyle;rounded=0;orthogonalLoop=1;jettySize=auto;html=1;exitX=1;exitY=0.25;exitDx=0;exitDy=0;entryX=0;entryY=0.5;entryDx=0;entryDy=0;entryPerimeter=0;" edge="1" parent="1" source="wZwStunDBRkNG8TW0eKS-74" target="wZwStunDBRkNG8TW0eKS-4">
          <mxGeometry relative="1" as="geometry" />
        </mxCell>
        <mxCell id="wZwStunDBRkNG8TW0eKS-79" value="Add Image Data" style="edgeLabel;html=1;align=center;verticalAlign=middle;resizable=0;points=[];" vertex="1" connectable="0" parent="wZwStunDBRkNG8TW0eKS-78">
          <mxGeometry x="0.1378" y="1" relative="1" as="geometry">
            <mxPoint x="-12" y="-9" as="offset" />
          </mxGeometry>
        </mxCell>
        <mxCell id="wZwStunDBRkNG8TW0eKS-83" value="Update cache &lt;br&gt;for certain Perimeter" style="edgeStyle=orthogonalEdgeStyle;rounded=0;orthogonalLoop=1;jettySize=auto;html=1;exitX=0.25;exitY=1;exitDx=0;exitDy=0;" edge="1" parent="1" source="wZwStunDBRkNG8TW0eKS-74" target="wZwStunDBRkNG8TW0eKS-82">
          <mxGeometry x="0.3778" y="-20" relative="1" as="geometry">
            <Array as="points">
              <mxPoint x="832" y="387" />
            </Array>
            <mxPoint as="offset" />
          </mxGeometry>
        </mxCell>
        <mxCell id="wZwStunDBRkNG8TW0eKS-99" style="edgeStyle=orthogonalEdgeStyle;rounded=0;orthogonalLoop=1;jettySize=auto;html=1;entryX=1;entryY=0.5;entryDx=0;entryDy=0;entryPerimeter=0;" edge="1" parent="1" source="wZwStunDBRkNG8TW0eKS-74" target="wZwStunDBRkNG8TW0eKS-96">
          <mxGeometry relative="1" as="geometry">
            <mxPoint x="724" y="527" as="targetPoint" />
            <Array as="points">
              <mxPoint x="849" y="490" />
            </Array>
          </mxGeometry>
        </mxCell>
        <mxCell id="wZwStunDBRkNG8TW0eKS-100" value="Subscribe" style="edgeLabel;html=1;align=center;verticalAlign=middle;resizable=0;points=[];" vertex="1" connectable="0" parent="wZwStunDBRkNG8TW0eKS-99">
          <mxGeometry x="0.383" y="2" relative="1" as="geometry">
            <mxPoint x="-4" y="-11" as="offset" />
          </mxGeometry>
        </mxCell>
        <mxCell id="wZwStunDBRkNG8TW0eKS-136" value="Subscribe" style="edgeStyle=orthogonalEdgeStyle;rounded=0;orthogonalLoop=1;jettySize=auto;html=1;exitX=0.75;exitY=1;exitDx=0;exitDy=0;" edge="1" parent="1" source="wZwStunDBRkNG8TW0eKS-74" target="wZwStunDBRkNG8TW0eKS-111">
          <mxGeometry relative="1" as="geometry" />
        </mxCell>
        <mxCell id="wZwStunDBRkNG8TW0eKS-74" value="Missing &lt;br&gt;Pet&lt;br&gt;Processor" style="whiteSpace=wrap;html=1;aspect=fixed;fillColor=#dae8fc;strokeColor=#6c8ebf;" vertex="1" parent="1">
          <mxGeometry x="814" y="287" width="70" height="70" as="geometry" />
        </mxCell>
        <mxCell id="wZwStunDBRkNG8TW0eKS-84" style="edgeStyle=orthogonalEdgeStyle;rounded=0;orthogonalLoop=1;jettySize=auto;html=1;exitX=1;exitY=0.5;exitDx=0;exitDy=0;exitPerimeter=0;" edge="1" parent="1" source="wZwStunDBRkNG8TW0eKS-82">
          <mxGeometry relative="1" as="geometry">
            <mxPoint x="1064" y="402" as="targetPoint" />
            <Array as="points" />
          </mxGeometry>
        </mxCell>
        <mxCell id="wZwStunDBRkNG8TW0eKS-82" value="Geo-Spatial Cache" style="sketch=0;points=[[0,0,0],[0.25,0,0],[0.5,0,0],[0.75,0,0],[1,0,0],[0,1,0],[0.25,1,0],[0.5,1,0],[0.75,1,0],[1,1,0],[0,0.25,0],[0,0.5,0],[0,0.75,0],[1,0.25,0],[1,0.5,0],[1,0.75,0]];outlineConnect=0;fontColor=#232F3E;gradientColor=#4D72F3;gradientDirection=north;fillColor=#3334B9;strokeColor=#ffffff;dashed=0;verticalLabelPosition=bottom;verticalAlign=top;align=center;html=1;fontSize=12;fontStyle=0;aspect=fixed;shape=mxgraph.aws4.resourceIcon;resIcon=mxgraph.aws4.elasticache;" vertex="1" parent="1">
          <mxGeometry x="651.5" y="377" width="50" height="50" as="geometry" />
        </mxCell>
        <mxCell id="wZwStunDBRkNG8TW0eKS-85" style="edgeStyle=orthogonalEdgeStyle;rounded=0;orthogonalLoop=1;jettySize=auto;html=1;" edge="1" parent="1" source="wZwStunDBRkNG8TW0eKS-50" target="wZwStunDBRkNG8TW0eKS-28">
          <mxGeometry relative="1" as="geometry" />
        </mxCell>
        <mxCell id="wZwStunDBRkNG8TW0eKS-94" value="Search Missing Pet" style="edgeLabel;html=1;align=center;verticalAlign=middle;resizable=0;points=[];" vertex="1" connectable="0" parent="wZwStunDBRkNG8TW0eKS-85">
          <mxGeometry x="-0.2461" y="-1" relative="1" as="geometry">
            <mxPoint x="-44" y="-23" as="offset" />
          </mxGeometry>
        </mxCell>
        <mxCell id="wZwStunDBRkNG8TW0eKS-86" style="edgeStyle=orthogonalEdgeStyle;rounded=0;orthogonalLoop=1;jettySize=auto;html=1;" edge="1" parent="1" source="wZwStunDBRkNG8TW0eKS-22" target="wZwStunDBRkNG8TW0eKS-82">
          <mxGeometry relative="1" as="geometry" />
        </mxCell>
        <mxCell id="wZwStunDBRkNG8TW0eKS-87" value="Geo-Spatial &lt;br&gt;Search" style="edgeLabel;html=1;align=center;verticalAlign=middle;resizable=0;points=[];" vertex="1" connectable="0" parent="wZwStunDBRkNG8TW0eKS-86">
          <mxGeometry x="-0.1306" y="-4" relative="1" as="geometry">
            <mxPoint y="-19" as="offset" />
          </mxGeometry>
        </mxCell>
        <mxCell id="wZwStunDBRkNG8TW0eKS-88" value="" style="group" vertex="1" connectable="0" parent="1">
          <mxGeometry x="488" y="742" width="89.00000000000001" height="70" as="geometry" />
        </mxCell>
        <mxCell id="wZwStunDBRkNG8TW0eKS-89" value="Missing &lt;br&gt;Pet&lt;br&gt;Comment&lt;br&gt;API" style="whiteSpace=wrap;html=1;aspect=fixed;fillColor=#dae8fc;strokeColor=#6c8ebf;" vertex="1" parent="wZwStunDBRkNG8TW0eKS-88">
          <mxGeometry x="19" width="70" height="70" as="geometry" />
        </mxCell>
        <mxCell id="wZwStunDBRkNG8TW0eKS-90" value="" style="sketch=0;points=[[0,0,0],[0.25,0,0],[0.5,0,0],[0.75,0,0],[1,0,0],[0,1,0],[0.25,1,0],[0.5,1,0],[0.75,1,0],[1,1,0],[0,0.25,0],[0,0.5,0],[0,0.75,0],[1,0.25,0],[1,0.5,0],[1,0.75,0]];outlineConnect=0;fontColor=#232F3E;gradientColor=#945DF2;gradientDirection=north;fillColor=#5A30B5;strokeColor=#ffffff;dashed=0;verticalLabelPosition=bottom;verticalAlign=top;align=center;html=1;fontSize=12;fontStyle=0;aspect=fixed;shape=mxgraph.aws4.resourceIcon;resIcon=mxgraph.aws4.elastic_load_balancing;" vertex="1" parent="wZwStunDBRkNG8TW0eKS-88">
          <mxGeometry y="20" width="30" height="30" as="geometry" />
        </mxCell>
        <mxCell id="wZwStunDBRkNG8TW0eKS-91" value="" style="sketch=0;pointerEvents=1;shadow=0;dashed=0;html=1;strokeColor=none;fillColor=#505050;labelPosition=center;verticalLabelPosition=bottom;verticalAlign=top;outlineConnect=0;align=center;shape=mxgraph.office.security.lock_protected;" vertex="1" parent="wZwStunDBRkNG8TW0eKS-88">
          <mxGeometry x="73.67000000000002" y="2" width="13.33" height="20" as="geometry" />
        </mxCell>
        <mxCell id="wZwStunDBRkNG8TW0eKS-93" style="edgeStyle=orthogonalEdgeStyle;rounded=0;orthogonalLoop=1;jettySize=auto;html=1;exitX=1;exitY=0.75;exitDx=0;exitDy=0;entryX=0;entryY=0.25;entryDx=0;entryDy=0;entryPerimeter=0;" edge="1" parent="1" source="wZwStunDBRkNG8TW0eKS-50" target="wZwStunDBRkNG8TW0eKS-29">
          <mxGeometry relative="1" as="geometry">
            <Array as="points">
              <mxPoint x="210" y="465" />
              <mxPoint x="210" y="565" />
            </Array>
          </mxGeometry>
        </mxCell>
        <mxCell id="wZwStunDBRkNG8TW0eKS-95" value="Sight Pet" style="edgeLabel;html=1;align=center;verticalAlign=middle;resizable=0;points=[];" vertex="1" connectable="0" parent="wZwStunDBRkNG8TW0eKS-93">
          <mxGeometry x="0.4789" y="2" relative="1" as="geometry">
            <mxPoint y="-6" as="offset" />
          </mxGeometry>
        </mxCell>
        <mxCell id="wZwStunDBRkNG8TW0eKS-116" value="Subscribe" style="edgeStyle=orthogonalEdgeStyle;rounded=0;orthogonalLoop=1;jettySize=auto;html=1;entryX=1;entryY=0.5;entryDx=0;entryDy=0;entryPerimeter=0;" edge="1" parent="1" source="wZwStunDBRkNG8TW0eKS-96" target="wZwStunDBRkNG8TW0eKS-114">
          <mxGeometry relative="1" as="geometry" />
        </mxCell>
        <mxCell id="wZwStunDBRkNG8TW0eKS-96" value="Sight Pet Queue" style="sketch=0;points=[[0,0,0],[0.25,0,0],[0.5,0,0],[0.75,0,0],[1,0,0],[0,1,0],[0.25,1,0],[0.5,1,0],[0.75,1,0],[1,1,0],[0,0.25,0],[0,0.5,0],[0,0.75,0],[1,0.25,0],[1,0.5,0],[1,0.75,0]];outlineConnect=0;fontColor=#232F3E;gradientColor=#FF4F8B;gradientDirection=north;fillColor=#BC1356;strokeColor=#ffffff;dashed=0;verticalLabelPosition=bottom;verticalAlign=top;align=center;html=1;fontSize=12;fontStyle=0;aspect=fixed;shape=mxgraph.aws4.resourceIcon;resIcon=mxgraph.aws4.sqs;" vertex="1" parent="1">
          <mxGeometry x="774" y="467" width="45" height="45" as="geometry" />
        </mxCell>
        <mxCell id="wZwStunDBRkNG8TW0eKS-97" value="Sight Pet" style="edgeStyle=orthogonalEdgeStyle;rounded=0;orthogonalLoop=1;jettySize=auto;html=1;exitX=1;exitY=0.25;exitDx=0;exitDy=0;entryX=0;entryY=0.5;entryDx=0;entryDy=0;entryPerimeter=0;" edge="1" parent="1" source="wZwStunDBRkNG8TW0eKS-23" target="wZwStunDBRkNG8TW0eKS-114">
          <mxGeometry relative="1" as="geometry" />
        </mxCell>
        <mxCell id="wZwStunDBRkNG8TW0eKS-101" style="edgeStyle=orthogonalEdgeStyle;rounded=0;orthogonalLoop=1;jettySize=auto;html=1;exitX=1;exitY=0.75;exitDx=0;exitDy=0;entryX=0;entryY=0.75;entryDx=0;entryDy=0;entryPerimeter=0;" edge="1" parent="1" source="wZwStunDBRkNG8TW0eKS-50" target="wZwStunDBRkNG8TW0eKS-29">
          <mxGeometry relative="1" as="geometry">
            <Array as="points">
              <mxPoint x="210" y="465" />
              <mxPoint x="210" y="580" />
            </Array>
          </mxGeometry>
        </mxCell>
        <mxCell id="wZwStunDBRkNG8TW0eKS-102" value="Confirm Sight" style="edgeLabel;html=1;align=center;verticalAlign=middle;resizable=0;points=[];" vertex="1" connectable="0" parent="wZwStunDBRkNG8TW0eKS-101">
          <mxGeometry x="0.7179" relative="1" as="geometry">
            <mxPoint x="-38" y="8" as="offset" />
          </mxGeometry>
        </mxCell>
        <mxCell id="wZwStunDBRkNG8TW0eKS-107" value="Confirm Sight" style="edgeStyle=orthogonalEdgeStyle;rounded=0;orthogonalLoop=1;jettySize=auto;html=1;exitX=1;exitY=0.75;exitDx=0;exitDy=0;entryX=0;entryY=0.5;entryDx=0;entryDy=0;entryPerimeter=0;" edge="1" parent="1" source="wZwStunDBRkNG8TW0eKS-23" target="wZwStunDBRkNG8TW0eKS-131">
          <mxGeometry relative="1" as="geometry">
            <mxPoint x="654" y="619.5" as="targetPoint" />
          </mxGeometry>
        </mxCell>
        <mxCell id="wZwStunDBRkNG8TW0eKS-111" value="Sight Confirmation Queue" style="sketch=0;points=[[0,0,0],[0.25,0,0],[0.5,0,0],[0.75,0,0],[1,0,0],[0,1,0],[0.25,1,0],[0.5,1,0],[0.75,1,0],[1,1,0],[0,0.25,0],[0,0.5,0],[0,0.75,0],[1,0.25,0],[1,0.5,0],[1,0.75,0]];outlineConnect=0;fontColor=#232F3E;gradientColor=#FF4F8B;gradientDirection=north;fillColor=#BC1356;strokeColor=#ffffff;dashed=0;verticalLabelPosition=bottom;verticalAlign=top;align=center;html=1;fontSize=12;fontStyle=0;aspect=fixed;shape=mxgraph.aws4.resourceIcon;resIcon=mxgraph.aws4.sqs;" vertex="1" parent="1">
          <mxGeometry x="904" y="512" width="45" height="45" as="geometry" />
        </mxCell>
        <mxCell id="wZwStunDBRkNG8TW0eKS-114" value="Send Notification To Owner" style="sketch=0;points=[[0,0,0],[0.25,0,0],[0.5,0,0],[0.75,0,0],[1,0,0],[0,1,0],[0.25,1,0],[0.5,1,0],[0.75,1,0],[1,1,0],[0,0.25,0],[0,0.5,0],[0,0.75,0],[1,0.25,0],[1,0.5,0],[1,0.75,0]];outlineConnect=0;fontColor=#232F3E;gradientColor=#FF4F8B;gradientDirection=north;fillColor=#BC1356;strokeColor=#ffffff;dashed=0;verticalLabelPosition=bottom;verticalAlign=top;align=center;html=1;fontSize=12;fontStyle=0;aspect=fixed;shape=mxgraph.aws4.resourceIcon;resIcon=mxgraph.aws4.sns;" vertex="1" parent="1">
          <mxGeometry x="651.5" y="497" width="50" height="50" as="geometry" />
        </mxCell>
        <mxCell id="wZwStunDBRkNG8TW0eKS-118" value="Add/Update Comments" style="edgeStyle=orthogonalEdgeStyle;rounded=0;orthogonalLoop=1;jettySize=auto;html=1;exitX=0.75;exitY=1;exitDx=0;exitDy=0;entryX=0;entryY=0.25;entryDx=0;entryDy=0;entryPerimeter=0;" edge="1" parent="1" source="wZwStunDBRkNG8TW0eKS-50" target="wZwStunDBRkNG8TW0eKS-90">
          <mxGeometry relative="1" as="geometry">
            <mxPoint x="370" y="840" as="targetPoint" />
            <Array as="points">
              <mxPoint x="130" y="722" />
              <mxPoint x="384" y="722" />
              <mxPoint x="384" y="770" />
            </Array>
          </mxGeometry>
        </mxCell>
        <mxCell id="wZwStunDBRkNG8TW0eKS-120" value="Comment Data" style="sketch=0;points=[[0,0,0],[0.25,0,0],[0.5,0,0],[0.75,0,0],[1,0,0],[0,1,0],[0.25,1,0],[0.5,1,0],[0.75,1,0],[1,1,0],[0,0.25,0],[0,0.5,0],[0,0.75,0],[1,0.25,0],[1,0.5,0],[1,0.75,0]];outlineConnect=0;fontColor=#232F3E;gradientColor=#4D72F3;gradientDirection=north;fillColor=#3334B9;strokeColor=#ffffff;dashed=0;verticalLabelPosition=bottom;verticalAlign=top;align=center;html=1;fontSize=12;fontStyle=0;aspect=fixed;shape=mxgraph.aws4.resourceIcon;resIcon=mxgraph.aws4.dynamodb;" vertex="1" parent="1">
          <mxGeometry x="813" y="819.5" width="40" height="40" as="geometry" />
        </mxCell>
        <mxCell id="wZwStunDBRkNG8TW0eKS-121" value="Add/Update Comments" style="edgeStyle=orthogonalEdgeStyle;rounded=0;orthogonalLoop=1;jettySize=auto;html=1;entryX=0;entryY=0.5;entryDx=0;entryDy=0;entryPerimeter=0;exitX=0.5;exitY=0;exitDx=0;exitDy=0;" edge="1" parent="1" target="wZwStunDBRkNG8TW0eKS-122" source="wZwStunDBRkNG8TW0eKS-89">
          <mxGeometry x="-0.1602" y="10" relative="1" as="geometry">
            <mxPoint x="598" y="804.5" as="sourcePoint" />
            <mxPoint as="offset" />
          </mxGeometry>
        </mxCell>
        <mxCell id="wZwStunDBRkNG8TW0eKS-122" value="" style="sketch=0;points=[[0,0,0],[0.25,0,0],[0.5,0,0],[0.75,0,0],[1,0,0],[0,1,0],[0.25,1,0],[0.5,1,0],[0.75,1,0],[1,1,0],[0,0.25,0],[0,0.5,0],[0,0.75,0],[1,0.25,0],[1,0.5,0],[1,0.75,0]];outlineConnect=0;fontColor=#232F3E;gradientColor=#FF4F8B;gradientDirection=north;fillColor=#BC1356;strokeColor=#ffffff;dashed=0;verticalLabelPosition=bottom;verticalAlign=top;align=center;html=1;fontSize=12;fontStyle=0;aspect=fixed;shape=mxgraph.aws4.resourceIcon;resIcon=mxgraph.aws4.sqs;" vertex="1" parent="1">
          <mxGeometry x="678" y="724.5" width="45" height="45" as="geometry" />
        </mxCell>
        <mxCell id="wZwStunDBRkNG8TW0eKS-123" value="Subscribe" style="edgeStyle=orthogonalEdgeStyle;rounded=0;orthogonalLoop=1;jettySize=auto;html=1;" edge="1" parent="1" source="wZwStunDBRkNG8TW0eKS-124" target="wZwStunDBRkNG8TW0eKS-122">
          <mxGeometry x="0.0667" y="13" relative="1" as="geometry">
            <mxPoint as="offset" />
          </mxGeometry>
        </mxCell>
        <mxCell id="wZwStunDBRkNG8TW0eKS-124" value="Comments Processor" style="whiteSpace=wrap;html=1;aspect=fixed;fillColor=#dae8fc;strokeColor=#6c8ebf;" vertex="1" parent="1">
          <mxGeometry x="798" y="712" width="70" height="70" as="geometry" />
        </mxCell>
        <mxCell id="wZwStunDBRkNG8TW0eKS-125" value="Read Comments" style="edgeStyle=orthogonalEdgeStyle;rounded=0;orthogonalLoop=1;jettySize=auto;html=1;exitX=0.5;exitY=1;exitDx=0;exitDy=0;entryX=0;entryY=0.5;entryDx=0;entryDy=0;entryPerimeter=0;" edge="1" parent="1" target="wZwStunDBRkNG8TW0eKS-128" source="wZwStunDBRkNG8TW0eKS-89">
          <mxGeometry x="0.1273" y="-14" relative="1" as="geometry">
            <mxPoint x="598" y="822" as="sourcePoint" />
            <mxPoint x="-10" y="-4" as="offset" />
          </mxGeometry>
        </mxCell>
        <mxCell id="wZwStunDBRkNG8TW0eKS-126" value="Update &amp;amp; Refresh Cache" style="edgeStyle=orthogonalEdgeStyle;rounded=0;orthogonalLoop=1;jettySize=auto;html=1;entryX=1;entryY=0.5;entryDx=0;entryDy=0;entryPerimeter=0;" edge="1" parent="1" source="wZwStunDBRkNG8TW0eKS-124" target="wZwStunDBRkNG8TW0eKS-120">
          <mxGeometry relative="1" as="geometry">
            <mxPoint x="902" y="849.5" as="targetPoint" />
            <Array as="points">
              <mxPoint x="898" y="747.5" />
              <mxPoint x="898" y="839.5" />
            </Array>
          </mxGeometry>
        </mxCell>
        <mxCell id="wZwStunDBRkNG8TW0eKS-127" value="" style="edgeStyle=orthogonalEdgeStyle;rounded=0;orthogonalLoop=1;jettySize=auto;html=1;" edge="1" parent="1" source="wZwStunDBRkNG8TW0eKS-128" target="wZwStunDBRkNG8TW0eKS-120">
          <mxGeometry relative="1" as="geometry" />
        </mxCell>
        <mxCell id="wZwStunDBRkNG8TW0eKS-128" value="Cache" style="sketch=0;points=[[0,0,0],[0.25,0,0],[0.5,0,0],[0.75,0,0],[1,0,0],[0,1,0],[0.25,1,0],[0.5,1,0],[0.75,1,0],[1,1,0],[0,0.25,0],[0,0.5,0],[0,0.75,0],[1,0.25,0],[1,0.5,0],[1,0.75,0]];outlineConnect=0;fontColor=#232F3E;gradientColor=#4D72F3;gradientDirection=north;fillColor=#3334B9;strokeColor=#ffffff;dashed=0;verticalLabelPosition=bottom;verticalAlign=top;align=center;html=1;fontSize=12;fontStyle=0;aspect=fixed;shape=mxgraph.aws4.resourceIcon;resIcon=mxgraph.aws4.elasticache;" vertex="1" parent="1">
          <mxGeometry x="718" y="819.5" width="40" height="40" as="geometry" />
        </mxCell>
        <mxCell id="wZwStunDBRkNG8TW0eKS-129" style="edgeStyle=orthogonalEdgeStyle;rounded=0;orthogonalLoop=1;jettySize=auto;html=1;exitX=0.25;exitY=1;exitDx=0;exitDy=0;entryX=0;entryY=0.75;entryDx=0;entryDy=0;entryPerimeter=0;" edge="1" parent="1" source="wZwStunDBRkNG8TW0eKS-50" target="wZwStunDBRkNG8TW0eKS-90">
          <mxGeometry relative="1" as="geometry">
            <Array as="points">
              <mxPoint x="70" y="785" />
              <mxPoint x="399" y="785" />
            </Array>
          </mxGeometry>
        </mxCell>
        <mxCell id="wZwStunDBRkNG8TW0eKS-130" value="Read Comments" style="edgeLabel;html=1;align=center;verticalAlign=middle;resizable=0;points=[];" vertex="1" connectable="0" parent="wZwStunDBRkNG8TW0eKS-129">
          <mxGeometry x="0.4387" y="4" relative="1" as="geometry">
            <mxPoint as="offset" />
          </mxGeometry>
        </mxCell>
        <mxCell id="wZwStunDBRkNG8TW0eKS-131" value="Confirmation Processing Queue" style="sketch=0;points=[[0,0,0],[0.25,0,0],[0.5,0,0],[0.75,0,0],[1,0,0],[0,1,0],[0.25,1,0],[0.5,1,0],[0.75,1,0],[1,1,0],[0,0.25,0],[0,0.5,0],[0,0.75,0],[1,0.25,0],[1,0.5,0],[1,0.75,0]];outlineConnect=0;fontColor=#232F3E;gradientColor=#FF4F8B;gradientDirection=north;fillColor=#BC1356;strokeColor=#ffffff;dashed=0;verticalLabelPosition=bottom;verticalAlign=top;align=center;html=1;fontSize=12;fontStyle=0;aspect=fixed;shape=mxgraph.aws4.resourceIcon;resIcon=mxgraph.aws4.sqs;" vertex="1" parent="1">
          <mxGeometry x="664" y="619.5" width="45" height="45" as="geometry" />
        </mxCell>
        <mxCell id="wZwStunDBRkNG8TW0eKS-137" value="Subscribe" style="edgeStyle=orthogonalEdgeStyle;rounded=0;orthogonalLoop=1;jettySize=auto;html=1;" edge="1" parent="1" source="wZwStunDBRkNG8TW0eKS-132" target="wZwStunDBRkNG8TW0eKS-131">
          <mxGeometry relative="1" as="geometry" />
        </mxCell>
        <mxCell id="wZwStunDBRkNG8TW0eKS-138" value="Send confirmation Update" style="edgeStyle=orthogonalEdgeStyle;rounded=0;orthogonalLoop=1;jettySize=auto;html=1;exitX=1;exitY=0.25;exitDx=0;exitDy=0;entryX=0.5;entryY=1;entryDx=0;entryDy=0;entryPerimeter=0;" edge="1" parent="1" source="wZwStunDBRkNG8TW0eKS-132" target="wZwStunDBRkNG8TW0eKS-111">
          <mxGeometry x="0.1667" y="-37" relative="1" as="geometry">
            <mxPoint x="1" as="offset" />
          </mxGeometry>
        </mxCell>
        <mxCell id="wZwStunDBRkNG8TW0eKS-140" style="edgeStyle=orthogonalEdgeStyle;rounded=0;orthogonalLoop=1;jettySize=auto;html=1;exitX=1;exitY=0.75;exitDx=0;exitDy=0;entryX=0;entryY=0.5;entryDx=0;entryDy=0;entryPerimeter=0;" edge="1" parent="1" source="wZwStunDBRkNG8TW0eKS-132" target="wZwStunDBRkNG8TW0eKS-139">
          <mxGeometry relative="1" as="geometry" />
        </mxCell>
        <mxCell id="wZwStunDBRkNG8TW0eKS-132" value="Reward&lt;br&gt;Processor" style="whiteSpace=wrap;html=1;aspect=fixed;fillColor=#dae8fc;strokeColor=#6c8ebf;" vertex="1" parent="1">
          <mxGeometry x="804" y="607" width="70" height="70" as="geometry" />
        </mxCell>
        <mxCell id="wZwStunDBRkNG8TW0eKS-139" value="Send Notification To Finder" style="sketch=0;points=[[0,0,0],[0.25,0,0],[0.5,0,0],[0.75,0,0],[1,0,0],[0,1,0],[0.25,1,0],[0.5,1,0],[0.75,1,0],[1,1,0],[0,0.25,0],[0,0.5,0],[0,0.75,0],[1,0.25,0],[1,0.5,0],[1,0.75,0]];outlineConnect=0;fontColor=#232F3E;gradientColor=#FF4F8B;gradientDirection=north;fillColor=#BC1356;strokeColor=#ffffff;dashed=0;verticalLabelPosition=bottom;verticalAlign=top;align=center;html=1;fontSize=12;fontStyle=0;aspect=fixed;shape=mxgraph.aws4.resourceIcon;resIcon=mxgraph.aws4.sns;" vertex="1" parent="1">
          <mxGeometry x="969" y="634" width="50" height="50" as="geometry" />
        </mxCell>
        <mxCell id="wZwStunDBRkNG8TW0eKS-162" value="Metrics &amp;amp; Logs&amp;nbsp;" style="edgeStyle=orthogonalEdgeStyle;rounded=0;orthogonalLoop=1;jettySize=auto;html=1;entryX=0.5;entryY=0;entryDx=0;entryDy=0;" edge="1" parent="1" source="wZwStunDBRkNG8TW0eKS-143" target="wZwStunDBRkNG8TW0eKS-154">
          <mxGeometry relative="1" as="geometry" />
        </mxCell>
        <mxCell id="wZwStunDBRkNG8TW0eKS-166" value="Alerts" style="edgeStyle=orthogonalEdgeStyle;rounded=0;orthogonalLoop=1;jettySize=auto;html=1;" edge="1" parent="1" source="wZwStunDBRkNG8TW0eKS-143" target="wZwStunDBRkNG8TW0eKS-164">
          <mxGeometry relative="1" as="geometry" />
        </mxCell>
        <mxCell id="wZwStunDBRkNG8TW0eKS-173" value="Archive" style="edgeStyle=orthogonalEdgeStyle;rounded=0;orthogonalLoop=1;jettySize=auto;html=1;exitX=1;exitY=0.25;exitDx=0;exitDy=0;" edge="1" parent="1" source="wZwStunDBRkNG8TW0eKS-143" target="wZwStunDBRkNG8TW0eKS-172">
          <mxGeometry relative="1" as="geometry" />
        </mxCell>
        <mxCell id="wZwStunDBRkNG8TW0eKS-143" value="Cloud Watch" style="outlineConnect=0;gradientColor=none;html=1;whiteSpace=wrap;fontSize=12;fontStyle=0;strokeColor=#858B94;fillColor=none;verticalAlign=top;align=center;fontColor=#858B94;dashed=1;spacingTop=3;" vertex="1" parent="1">
          <mxGeometry x="361" y="1271" width="398" height="167" as="geometry" />
        </mxCell>
        <mxCell id="wZwStunDBRkNG8TW0eKS-145" value="XRay" style="sketch=0;points=[[0,0,0],[0.25,0,0],[0.5,0,0],[0.75,0,0],[1,0,0],[0,1,0],[0.25,1,0],[0.5,1,0],[0.75,1,0],[1,1,0],[0,0.25,0],[0,0.5,0],[0,0.75,0],[1,0.25,0],[1,0.5,0],[1,0.75,0]];outlineConnect=0;fontColor=#232F3E;gradientColor=#4D72F3;gradientDirection=north;fillColor=#3334B9;strokeColor=#ffffff;dashed=0;verticalLabelPosition=bottom;verticalAlign=top;align=center;html=1;fontSize=12;fontStyle=0;aspect=fixed;shape=mxgraph.aws4.resourceIcon;resIcon=mxgraph.aws4.xray;" vertex="1" parent="1">
          <mxGeometry x="381" y="1304" width="78" height="78" as="geometry" />
        </mxCell>
        <mxCell id="wZwStunDBRkNG8TW0eKS-147" value="" style="edgeStyle=orthogonalEdgeStyle;rounded=0;orthogonalLoop=1;jettySize=auto;html=1;" edge="1" parent="1" source="wZwStunDBRkNG8TW0eKS-146" target="wZwStunDBRkNG8TW0eKS-143">
          <mxGeometry relative="1" as="geometry" />
        </mxCell>
        <mxCell id="wZwStunDBRkNG8TW0eKS-148" value="Metrics (Standard, Custom)&lt;br&gt;Logs&lt;br&gt;Health Check&lt;br&gt;Telemetry" style="edgeLabel;html=1;align=center;verticalAlign=middle;resizable=0;points=[];" vertex="1" connectable="0" parent="wZwStunDBRkNG8TW0eKS-147">
          <mxGeometry x="-0.2409" y="2" relative="1" as="geometry">
            <mxPoint as="offset" />
          </mxGeometry>
        </mxCell>
        <mxCell id="wZwStunDBRkNG8TW0eKS-146" value="API, Processing and Data Store Layer" style="outlineConnect=0;html=1;whiteSpace=wrap;fontSize=12;fontStyle=0;strokeColor=#6c8ebf;fillColor=#dae8fc;verticalAlign=top;align=center;spacingTop=3;" vertex="1" parent="1">
          <mxGeometry x="198" y="1132" width="720" height="37" as="geometry" />
        </mxCell>
        <mxCell id="wZwStunDBRkNG8TW0eKS-152" value="Cloud Wtach&amp;nbsp;&lt;br&gt;Log Groups, Metrics and Alerts" style="sketch=0;points=[[0,0,0],[0.25,0,0],[0.5,0,0],[0.75,0,0],[1,0,0],[0,1,0],[0.25,1,0],[0.5,1,0],[0.75,1,0],[1,1,0],[0,0.25,0],[0,0.5,0],[0,0.75,0],[1,0.25,0],[1,0.5,0],[1,0.75,0]];points=[[0,0,0],[0.25,0,0],[0.5,0,0],[0.75,0,0],[1,0,0],[0,1,0],[0.25,1,0],[0.5,1,0],[0.75,1,0],[1,1,0],[0,0.25,0],[0,0.5,0],[0,0.75,0],[1,0.25,0],[1,0.5,0],[1,0.75,0]];outlineConnect=0;fontColor=#232F3E;gradientColor=#F34482;gradientDirection=north;fillColor=#BC1356;strokeColor=#ffffff;dashed=0;verticalLabelPosition=bottom;verticalAlign=top;align=center;html=1;fontSize=12;fontStyle=0;aspect=fixed;shape=mxgraph.aws4.resourceIcon;resIcon=mxgraph.aws4.cloudwatch_2;" vertex="1" parent="1">
          <mxGeometry x="524" y="1304" width="78" height="78" as="geometry" />
        </mxCell>
        <mxCell id="wZwStunDBRkNG8TW0eKS-167" value="Alerts" style="edgeStyle=orthogonalEdgeStyle;rounded=0;orthogonalLoop=1;jettySize=auto;html=1;" edge="1" parent="1" source="wZwStunDBRkNG8TW0eKS-154">
          <mxGeometry relative="1" as="geometry">
            <mxPoint x="191.857177734375" y="1439.1427536010742" as="targetPoint" />
          </mxGeometry>
        </mxCell>
        <mxCell id="wZwStunDBRkNG8TW0eKS-154" value="" style="rounded=0;whiteSpace=wrap;html=1;" vertex="1" parent="1">
          <mxGeometry x="361" y="1502" width="399" height="122" as="geometry" />
        </mxCell>
        <mxCell id="wZwStunDBRkNG8TW0eKS-157" value="Grafana" style="shape=image;html=1;verticalAlign=top;verticalLabelPosition=bottom;labelBackgroundColor=#ffffff;imageAspect=0;aspect=fixed;image=https://cdn4.iconfinder.com/data/icons/logos-brands-5/24/grafana-128.png" vertex="1" parent="1">
          <mxGeometry x="381" y="1530" width="60" height="60" as="geometry" />
        </mxCell>
        <mxCell id="wZwStunDBRkNG8TW0eKS-158" value="Prometheus" style="shape=image;verticalLabelPosition=bottom;labelBackgroundColor=#ffffff;verticalAlign=top;aspect=fixed;imageAspect=0;image=https://symbols.getvecta.com/stencil_92/48_prometheus-icon.ef1a6b5d85.svg;" vertex="1" parent="1">
          <mxGeometry x="478" y="1534.0015255737305" width="50" height="50" as="geometry" />
        </mxCell>
        <mxCell id="wZwStunDBRkNG8TW0eKS-159" value="Elastic Search" style="shape=image;verticalLabelPosition=bottom;labelBackgroundColor=#ffffff;verticalAlign=top;aspect=fixed;imageAspect=0;image=https://cdn.iconscout.com/icon/free/png-256/elasticsearch-226094.png;" vertex="1" parent="1">
          <mxGeometry x="680" y="1528.0015255737305" width="60" height="60" as="geometry" />
        </mxCell>
        <mxCell id="wZwStunDBRkNG8TW0eKS-160" value="Event Bridge" style="sketch=0;points=[[0,0,0],[0.25,0,0],[0.5,0,0],[0.75,0,0],[1,0,0],[0,1,0],[0.25,1,0],[0.5,1,0],[0.75,1,0],[1,1,0],[0,0.25,0],[0,0.5,0],[0,0.75,0],[1,0.25,0],[1,0.5,0],[1,0.75,0]];outlineConnect=0;fontColor=#232F3E;gradientColor=#FF4F8B;gradientDirection=north;fillColor=#BC1356;strokeColor=#ffffff;dashed=0;verticalLabelPosition=bottom;verticalAlign=top;align=center;html=1;fontSize=12;fontStyle=0;aspect=fixed;shape=mxgraph.aws4.resourceIcon;resIcon=mxgraph.aws4.eventbridge;" vertex="1" parent="1">
          <mxGeometry x="656" y="1302" width="78" height="78" as="geometry" />
        </mxCell>
        <mxCell id="wZwStunDBRkNG8TW0eKS-164" value="Notifications" style="rounded=0;whiteSpace=wrap;html=1;labelPosition=center;verticalLabelPosition=top;align=center;verticalAlign=bottom;" vertex="1" parent="1">
          <mxGeometry x="58" y="1271" width="224" height="167" as="geometry" />
        </mxCell>
        <mxCell id="wZwStunDBRkNG8TW0eKS-165" value="" style="shape=image;verticalLabelPosition=bottom;labelBackgroundColor=#ffffff;verticalAlign=top;aspect=fixed;imageAspect=0;image=https://upload.wikimedia.org/wikipedia/commons/thumb/c/c9/Microsoft_Office_Teams_%282018%E2%80%93present%29.svg/2203px-Microsoft_Office_Teams_%282018%E2%80%93present%29.svg.png;" vertex="1" parent="1">
          <mxGeometry x="82" y="1297" width="52.74" height="49.08" as="geometry" />
        </mxCell>
        <mxCell id="wZwStunDBRkNG8TW0eKS-169" value="" style="shape=image;verticalLabelPosition=bottom;labelBackgroundColor=#ffffff;verticalAlign=top;aspect=fixed;imageAspect=0;image=https://twilio-cms-prod.s3.amazonaws.com/original_images/slack_rgb.png;" vertex="1" parent="1">
          <mxGeometry x="150" y="1286" width="120.81" height="56.69" as="geometry" />
        </mxCell>
        <mxCell id="wZwStunDBRkNG8TW0eKS-170" value="" style="shape=image;verticalLabelPosition=bottom;labelBackgroundColor=#ffffff;verticalAlign=top;aspect=fixed;imageAspect=0;image=data:image/png,iVBORw0KGgoAAAANSUhEUgAAAfQAAABlCAMAAACMReHqAAAAilBMVEX///8lwVEfwE31/PcAvUJTzXPS79gXv0r8//0gwE5kz36z58ESv0h915SR26JFyWl51Y/r+e+C1ZTa8+Hk+Oozxl266cbF7c+a36uw571q0YPM8Nam47Xy+/QqxFiK2Jo8x2JXzndw04lNzG+W3qgAvDu/68uo4bTY9ODf9ORe0Hyf4a+w5LvP7tUYIBohAAAMX0lEQVR4nO2daXuyOhCGBbEQjQtVbN0Qt9bl7f//e0cFkglZSJBaPeb51Ms6TDI3CSHL2GhYWVlZWYkVfFN9/HVhrO6j5g7n8gZ/XRir+6iJnVx+968LY3UfWegvqN+GHlD9wtWtKumXof9sVrk2X/Vf3qqSfhn6h+fm8ib1X96qkn4dOrk87tR/eatKstBfUBb6C8pCf0FZ6C8oC/0FZaG/oCz0F5SF/oKy0F9QFvoL6n8GPWgKJF/gC1S6waOeZSWXQn/aPrNr8NBhuBSWvENBScYA+kRQ3oCrv6qw6pItxqdlu8VrNR18TvbCyn8OFOouJWZEo878fXrkPR6785nSsLEff29FHrf/3lRmH5PeeiWoYqu16RYjMvqanCTaukXob31ypf5Y7n8xpQ6XV4ejPl+WPiKXR32+uP10W954Teq9DuUuQxrfzWfhf82fqeNj3xXq8o+oN+Iu2GxjX6WL2ZI3ywIw3rgyj+fPo+VBYhi89ZLztYWuz9dzekOx3aEXXawkVTwy0A+nxL34kMgpQtdcDQ37xD1eXx0Od3xZKPMzdf7fXnpXfXqk1p4sVGeNYurynf3XfuX7jlIIR8UbpRFMXbXRxSweCLHPW57S+Gy4XYgM91OMkdLQWQoMw/dYZeZC6OE6UroAItDJJ1gJnVzWz6B7wsuqlEOntx5WQA8j6nLJ/GepBpAKef0CvmY59LOZ7/GjkXBa7hFhX7C/eOyV3J1n4ZjrYr88X4kRQu8g9XehnhZ6s4uFV+dr2GefmBot/SKEeoWSDDdaHpG7LdZhW478Yuj32Ef0yS3BSKEHPX3kzws96Go7dh2m49SEfi4nSz1ItNBdqlO4XU6at6eDB6xZGUcKfWmE4Vmh93QDebFjxjva0B3vxJjpe2QMYWxLDbdGZgT63CAaztNC3xu5ZaqkDx054OXt2yCuKAZPlHCj6+8iYhj2y81y6KHuCC7Tc0JvtnW72qtQBDp4rYFc5rBNrEaOSVzdhPp7N2mFbp902BpmOfSuUTSeFfqbWXfm+P/oBfVb+rmoZCS+NfPokZF40yxAfmYY6Jhl0A9GHpxnhT5gbm3BXEBhtsBt06d6s+2JZkhyMXeEn4+sgpidfBDYMT2BP80dso8FVzDNwhquU7MJE1dxDV28unphxzdIJuDkVugVJmc6t0IPIuDC9TfHNq9jAkOBaf8enN4V6rZjcEOhJHvJ/4IM/Oi45gynicfcZlmVFkdwF7nxcSAoKPO2ha+zkwG8rRHui2p4Vjor2ofRwElfIvqtDPrMHPognYZd8UVpgWnYFv/v1cet0GeQwOonFC1FLMITiIVXMi1O1XxbgXjjrLd9B5/565Fg8iwIJxHgm/fvI3gjJG9Nfq1iMZolwBDPC4F23GgcLhQLLsMYlK39NgrFOlDEt0IXLLgEoFngsWDBJb3WDdA7FIG7kZuCbg+f5F/jNKWXz8ITrLjVClFR4beyBwOIBerLlhiCo18wPNAPUKKIztUFuD/68q81d8UqVO7eRQIX8+Rn2W6ADl5LRZOeuUbg3l7Kv8ZpT8zOQ6X0SgkNrCdfHQKNyW2lHy0pPcUyM+gP3OnlgzfAg5vgK+gfCKRisezZoVNTFElWp67VBE8xo9wLG2KI0qazpz2ou1IsBNOyoiT9BDybd3LDoE36iHREDkOoAHkVGCrGijXaZ4fe04QOTI2grwkpFF8/eCNFVfcZwDCbGqDjOBQpDGmHgDaXngRsSfDKEsScNKNhoSs14KDTlq7cavQOoKfjfvqYR4rnLfDoti53y1grhKl0+z0LXSnQYJ3rBxWgxybQAxpX9zoL+BvQudG7hQ51d+gzMDK9zs5Y6HeHPvgV6PKXS7i4kq7LPnf3Lh96PgD0xeggUkhn52tt6cFCqOEEbsjxrgPw527pjwo9COeDdisRiyKuPpDjoDuxeEtrK2bXcq5zV7al1w89/Gx5ly2mpUsTNbb08xhNvDDELrikl7fQ64YezGOsubxaZ0vXc/hzNbPQicuaoE/1N5rU2tI1lG/bsM904rIW6E2DzW73bum5lW3pNUPX3TqdUbja3As62WxvoROXdUAfG+17um/3jsm8voVOXNYAPYy1n+fX698TOtgvb6ETlzVAN9qbelfovgeO3dmBHHF5O/RDZNTQ7wbdxagLa2JbOnF5O/QJbOgIS871gj1+dUKXHo7GTuubPWZpW3qN0OGxEdw/df4JRXd21joNuxRvwO19/uPSINiWXiN0WnHHXUuTd9x9aZWTben1QQebfukBIl4WOtSzQwfbaPGP3HBqoQM9O3QYH0Wem19aT1cYFnUX6BUOOzwjdGDYEuaGSQWgpwM5sAVauQfnoaFzA7nqJ1wEehjoXPukZ09RomjptJYZqSEthHLfuxJ6LLfjZAJ9qxeNBWjpacYmCP1bblgndJCUw1OU9QbofDXnWjfaCBxtyE64wDOCRtDpKQbVYQdOJtBhdhPFYQdwaMZP53tBZgfVbv46oYN5kvTQnsRldegQcTrFCWIJEg4UBc74C86yqY7F8dDBtYqpaFQygQ6PNf2Tfw2ctcmqsKAdPkrkd2Sd0EHnghSvT2XQ5Q12D5pnFjmYtcTtip/qwRxO4GQRhyeH4470BX/JQYdTgEg/Z6oJ9C9aXrIez9fqRMtBDs2Asrlr6RhnUSP0BZwokQBolEF34s+OWP96CO4xDblqOjhafvNmpyPEFGcdCTN96/Xf58JMnN8rMJWXhn/IeBx8DSUHiYnSqJpAP4CjyiheTkTBOB3hAXsvizYzRyy2PGuemEJX3NxwkRP3l52PmUjjiJZLAN0RJIXIBGpJRl9MJhfkC7J2Mrvn0iOkl1uPTfYgy8UJJu0z6IsWvJ5fvvwyM4bOJCVAkul9plZ5Uqrv0mgUAnk79C3rUpL/FGbNEEHXEnkO/5gtstGUqVO//NtQpKM1KyuqAt00HCQaQ7PNBXVA/zFzeAN05OSPusAoLRWKSB1nprtac+ihYVKeCtBNN4bE5G11YHgr3w7duPVUhg7GzXsTUx+8vZolMQNDKr0coUQ89LKjynrpx6jopiyY8EJLetCVSf6NE4NVhO5uwDDRwBbDtzrDrpBCb7aMIlsFetMkeaDbB9EwzJRWQ0s33btUETrCzHL1WtfYZXPEfHgm1MHL0yEyeTRUgd74QNplQ161aFylN/eu/jkPk3yrTlXorsvOWCzaetauW3jn7TgG8OAb8wwZGFaC3pjrjhxcxM6yL9YmY446WnojXBk9YqtA9yMum5jWCRe84ibn94nB0Rg4TfIR6ffw1aA3Ohpvg44wGkvdI15OLc/0xvW4iX6nWQG670/5hZWgU/obCL47EEwXLZbaP57Azo2FbT0mTmXojY9NedGQPxXM2OlYZqoHeiOYO9qtwAw6cn3sHcURGy0dD0tS6F/sdlNJpEfb+HLctfwRWpwQHfc9Pe5VoTeap9jz5T8LgJDvRWIaze9IZQlUE/TzsHhw+WEaLZcm0ONktT4plk+/etMkxh4ndLabK9baGx+99bEVi33SP/lZ8Nl7K/Y86c/q5Eqhd3akQLvS93RatGU74mt0FY43XUXWzPH7KnEkpkC7qRT6FyixYnGeKJhcXPoSR0roKPkaSiTK5cm6HQ3feO1L7c5NIxS7PLRdOfRzJz/8GU/mJUrv0/CHFOinvDygZAdBla46KBrARQthNLiryO1BiUtcAZd7sZsv5dw7ydj7GFpzq2xWVVSytFqWOPW+AvusIgu9ukbPBB2kCVVtvLQq0QGkWMun0B8Vegi3ovx1YZ5ZcP9kfqzzUaGDmew8C7RVFcE9T/n734NC/6IvGma5xq1YfYKpm10+Nvor6KptTqOPLlyH0/8piReUJItiqnDYhbNYKDf6I+jNfiwXZn5OVbmt/uX1tpGqtYmZQGJyoOivoCeybIOoOC9b+nMML60ZVgSyEEmyk//PoGsvDil+88PKYO+ZPyVGDw/d5FzDC0ofOtjx8ejQ3Y1t6CppQxf/pPJjQt9proa+qnShu5Fwc6PyLFvd0oSONNaTX1ua0F0G7kNDR77i2K/VRXrQfcRs4Xxg6Ag7irwmVlfpQEdeYWvXw0JHOOnZMVypyqGfA9kpbNL5K+iR7IhfmgLQ2yUnu4quoRmWHFy86BxJb+d8c4Hsufnkp5PcEXrQW8rV+5zMpOfWrRjtpwoNlp9jUW8ZHkZEBjk9rB5Egl/apr/J/deFs7KysrK6n/4DzFuSwSugV68AAAAASUVORK5CYII=;" vertex="1" parent="1">
          <mxGeometry x="73" y="1390" width="149.22" height="30.14" as="geometry" />
        </mxCell>
        <mxCell id="wZwStunDBRkNG8TW0eKS-171" value="" style="shape=image;verticalLabelPosition=bottom;labelBackgroundColor=#ffffff;verticalAlign=top;aspect=fixed;imageAspect=0;image=data:image/jpeg,/9j/4AAQSkZJRgABAQAAAQABAAD/2wCEAAkGBxATEhUSEBIQFRAQExUYFxUVFRUWFxUSFRUXFhcSGRYZHiggGBonGxcWITMhJSkuLi4vFx8zODMsNygtLisBCgoKDg0OGxAQGy0lICU3NysrLy0tKystLS0vNS0tLS0tLS0tLS0tLy0tLS0tLS0tLS0tLS0tLS0tLS0tLS0tLf/AABEIAIIBhAMBIgACEQEDEQH/xAAcAAEAAwADAQEAAAAAAAAAAAAABgcIAwQFAgH/xABNEAABAwIACAcJDAgHAQAAAAABAAIDBBEFBgcSITFBcRM1UWGBkbIiMlJyc3ShsbMUIyQ0QkRTVJKTw9EVFhclgsHC0jNDYmSDoqPT/8QAGgEBAAIDAQAAAAAAAAAAAAAAAAIDAQQFBv/EADMRAAIBAgIFCwUBAAMAAAAAAAABAgMRBDEFEiFBsRMyMzRRYXGBocHwInKR0eFSFEKC/9oADAMBAAIRAxEAPwC8UREAREQBERAEREBRldT5kj2HXG54+y4j+S4FLMoeCjHNwzR73Ua+aQCxHSAD9pRNe4w9VVqcai3/AB+p5atT5Oo4dnDd6BERXFQREQBERAWNk5wlJIyWORxcIiwtJNyA/Ou2/IM3RvU0UByW/ON0X4iny8hpOCjipJd3BHo8DJyoRb7/AEbQREWgbYREQBERAEXn4bwk2mp5ah7XObCwvLW2uQNgvouoH+2Sk+q1X/l/epRhKWRFySzLMRQ/FDH6DCEzoYoZmOZGZLvzLEBzW27lx090FMFhpp2ZlNPILp1mE6eK3DTQxk6s97W33XK8vHjDZo6KWdgBkADWXFxwj3BoJG0C9+hZxqqh8r3SSvc+R5u57jdxO9WQp620jKdjU9LVRyNzo3se3wmODh1hc6zDi1h+ahmbNC4gAjPZfuZGbWkar21HYVpmCUPa17e9e0EbiLhYnT1DMZaxyoiKskEREAREQBERAEREAREQBERAEREAREQBERAEREARdJ2E6cEgzwgtNiDI0EHaCL6Cvz9LU308H3jPzU1SqPKL/DMay7TvIuj+lqb6eD7xn5r8/TFL9Yp/vWfms8lU/wAv8DWR9YToI543RSi7XDpB2OHIQVU2HcBzUr814uwnuZAO5cP5HmVrfpmk+sU/3rPzXFPhWieC189K5p1tdJGQeglb2CxNbDO2q3F5r3XfxNTFYaFdXvZ9vsymkU9r8A4Jebsq4YzyCaNzepxuOgry3Yr0uzCdJbnMf/0XehpChLO68Yv2TXqcmWBrRySfg172IsimsWIGc3PZVsc0i4LY7g7iHqFAq+jiKVa/JyvbPNcUuwoq0KlK2urXyy9mwiIryonmS35xui/EU+UByW/ON0X4iny8lpbrcvLgj0Wj+rx8+LCIi5xuBERAEREBHsoHFtX5u/1LNq0llA4tq/N3+pZtWzQyKamZYmQ/49L5q/2sSu9UhkP+PS+av9rErvVVXnE4ZEZyg4HfV0E0UQvKM17B4To3B2ZvIBG8rOZBBIIIINiCLEEawRsK1ko9hnEvB1U7hJ6dpkOt7S6NzvGLCM7pWadTV2MThfaZ5wRguWqmZTwtJklNtHyW/KeeRoGm61FTQhjGsGpjQ0bmiwXnYExfpKQEUsLI87WRcudble67j0lessVJ6whGwREVZMIiIAiIgCIiAIiIAiIgCIiAIiIAiIgCIiAIiICncb6csrJwR3z7jnDgHX6yepeOrCyj4JLmtqGDTGM1/i3u13QSR/FzKvV7PAV+Vw8ZJ7rPxXy/meZxdLk60k9+1efy3kfDmLhexdlfLmrcuzXsjoPYuu+Neg9i672LBKyOg9i4XsXeexcD2LFyROMjtZIJ5obng3xOfm7A9rmgOA2GziOew5F4w1BetkfHw2Tzd3bYvOrICyR7DrY9zfskj+S1KTSxFXvUXxL66fI039y4fo4kRFuGoTzJb843RfiKfKA5LfnG6L8RT5eS0t1uXlwR6LR/V4+fFhERc43AiIgCIiAj2UDi2r83f6lm1aTx/wCLavzd/qWbFs0MimpmWJkP+PS+av8AaxK71SGQ/wCPS+av9rErvVVXnE4ZBQv9qWCfppPuJv7VMn6juWTys0oKV7icmsjReA8e8H1cwgp5HulcHEAxSNFmi50uaApOs/5IeM4vJy9grQCjUiouyMwba2hRnDmPOD6SUwVEj2yNAJAikcLOFxpa0hSZUDlg4zk8lF2UpxUnZiTaWwspmU/BJIAmkuSAPeZtZ0eCpospUnfs8dvaCuvKVj0aQe5qYj3U9t3O0EQsOo22vOwHVrOy850rNKJGM87krw1jHR0gvUzMYSLhut7hzMbdx6lD6rLBQtNmQ1Tx4WbG0Hrff0Kl6id8j3Pkc58jzdznEuc48pJ1rjViox3kXUZonEnHOPCPDcHFJHwHB3zy034TPta3JmHrUqVSZBtdbupvx1baoqJKVkWRd0F52FsNU1K3PqZo42nVnHS7ma3W47goxlDx5bQt4KHNfWSC4B0tiaf8x/KeRu3dro3CFfNPIZZ5HySO1ucbncNgHMNClCk5bWYlO2xFx1+V+habQxVMv+qzWNP2jndbV0xllivpo5bc0jSeqw9ap9FdyMCvlGX1gjKlg2YhsjpKdx+maA37bSWgeNZTSKVrgHMIc1wuCCCCOUEa1lFSbEvHOegkFi59M493CTottcy/ev8AQdvKISor/qSVTtLyxjxnpKEMNU9zRKXBtmPffNtfvQbawvF/algn6aT7ib+1RPLJXRzwUM0Tg6KXhnNcNoIj6jsI2EKrViFKLjdiU2nsNS4HwnFUwsngJdFICWkgtvYlp0HSNIK/V4WS/ium8V/tXoqZKzaJraiVIvKrMP0sTzHLM1r22uCDouLjUORcX61UP07ep35K1Yes1dQf4ZF1qadnJflHtIvD/Wyg+sM6n/kvz9b8H/WWdTvyWf8AjVv8S/DHLU/9L8o9mWMOBa4AtcCCDpBB0EEKssacUpISZIAXwHTYaXR8xG1vP18pmf64YP8ArLOp/wCS/P1ywd9Zj6nfktrCSxOGleMG081Z7fQ18RChXjaUl3O6KkCKf4SrcBTHOfLGHH5TM9hPObCx6QvIkpcCX0VzgOQgn+ld+GPjJfVCaf2v56HKlgpLKUX5r56kVc1cD2KwcF4qUFQCYKsyBuvNzbtvquLXHSobhKlDJZIwSRG94BOshriL+hW0cVTrScY5rO6a4lNXDzpJOWT77nkPYuB7F33sXA9i2ColWSRvw1/kH9ti9PKHgkxzcO0e9za+aQDSOkC/QV0clDfhj/IP7bFaGEKKOaN0UrbseNPKOQg7CFwMXinh8dr7rJPw/mZ16NBVsLq77trxKQRe1jDi5NSuJILoSe5eBo5gfBd6DsXiru06kakVODumcmcJQlqyVmTzJb843RfiKfKA5LfnG6L8RT5eV0t1uXlwR39H9Xj58WERFzjcCIiAIiICP4/8W1fm8nqWbFpPH/i2r83k9SzYtmhkU1MyxMh/x6XzV/tYld6pDIf8el81f7WJXeqqvOJwyPl+o7lk8rWD9R3LJ5VlDeRqbiZZIeM4vJy9grQCz/kh4zi8nL2CtAKFbnEqeQVA5YOM5PJRdlX8qBywcZyeSi7KUecKmRDIn5rg7wSD1G69nBmDavCdU/gxnzSuL5HuuGMDj3zjsGwDXosNS8QlaKyd4BbSUUbc20szRJKdpe8XDT4osOg8qvqT1VfeVxV2eDgfJHRMANU+Wd+0AmKO/MG91/2XvR5PsFDQKSPpdI70lylKLVc5PeW6q7Dx8CYuUlIXmliEZmzc+znkHMzs3Q4kC2c7Vyrkxjwwykppah+kRN0DwnnQxnS4gL1FUuXLCh94pWnQbyv6O4YO2egLMVrSsw3ZFX4QrZJpXzTOzpZXFzjznYOQAWAGwABfWCsGzVErYYGF8rzoA5NridjRtK6ivXJFi62npRUPHv8AVgOudbYfkNG/vjvHItmctVFMVd2Oti7knpI2h1Y508u1oLmRNPILWc7eTY8ilkWKWDW97Q0e8wRk9ZF17aLVc5PNl6ikRfCOIWC5gQaSKM+FCOCIPL3FgekEKqceMn01CDNE4y0t9Lrd3HfVngaCP9Q6gr+XDPC17XMe0OY8EOadILSLEEcllmNRxMOCZlx9c8wtgJvHHI97R4LpA0OA5jmg25bnauqvZxwwIaOrlp9OY050ZO2J+lu+3ek8rSvGW4mntRQzROS/ium8V/tXomS/ium8V/tXotGfOZfHIjOUimzalr9kjGn+JpLSOq3WoqrXx0wOaiDuBeWElzRtcLd0zpHpAVUL1mi66q4dLfHY/b04M4GPpOFZvc9v7+d58OauB7F2l8OauiaZ0XNXA9q7z2Lge1YMnSe1cD2ruvauB7UJEhyYzOZhGENJAkEjXDlbwbnWPS0HoXdw/wDGp/Kydoro5OW/vKDfJ7N69fG6nLKya+15cNz+7/mepaaaWLa7Yr0lJfo2JdX/APT4HiuauF7F2F8uat01CTZLW/C3+Rf22q1lV2TJvwt/kXdtqtFeV0x1nyR39HdAvF8T4e0EWIBB1g6iORR2vxLo5CSGujJ+jNh9k3aOgBSVFz6dapSd4Sa8DbqU4VFaSueFi5i6ykMhY9z+Fze+AFs3O5PGXuoixUqTqS15u7EIRhHVitgREUCYREQBERAR/H/i2r83k9SzYtJ4/wDFtX5vJ6lmxbNDIpqZliZD/j0vmr/axK71SGQ/49L5q/2sSu9VVecThkfL9R3LJ5WsH6juWTyrKG8jU3EyyQ8ZxeTl7BWgFn/JDxnF5OXsFaAUK3OJU8gqBywcZyeSi7Kv5UDlg4zk8lF2Uo84VMiGwNu5oOouA6yAtXNFtA1BZTpO/Z47e0Fq5Tr7jFPeERFrlgWe8rFVwmE5h9E2KMdDA/1vK0Is2ZQT+8qvyx7LVdQX1FdTI8SlgMj2RjXI9rBve4NHrWqYIWsa1jRZrGhoHIALALMuKwBraW+r3TB7Rq0+s19xinvCIioLQiIgKby60wE9LKBpkilYTzROY4D/ANXKsFbmXgdzSb5/VEqjW5Sf0I155micl/FdN4r/AGr0TJfxXTeK/wBq9FqT5zLo5EqUGxsxPL3OnpQM86Xx6g47XN2A8o2+ucorsPiKlCevB/p+JCtRhVjqzKImic1xa9rmubra4EEbwV8K7a/BkEwtNGx9tRI0jcdYXiyYj0JNwx45g829N13aWmqLX1xafdZrimcmejKif0tPxuv2VQ9q4HsVu/qJQ+DJ9sqvcacHsgqZIo75jM21zc6WNJ07yt7DY+jiJOML7FfavDv7zXrYSpRjrSt2bH/CPPauB7F3XsXA9q2zWPYyeN/eMG9/s3qe5RcEFzW1DBcxjNf4l7h3QSevmUHxAb+8YP8Ak9m5XY9gIIIBBFiDpBB2LgaSryoYuFSO6P5V5XOtg6Sq4eUH2/oohFL8ZsTZIyZKVpdEdJYNLo9w+U30jn1qILtUK8K8Nem7rh49ny10curSnSlqzX98PnjYluTUfCn+SPaarNVZZNfjT/Iu7TVZq83pjrPkjuaO6DzfEIiLlm8EREAREQBERAEREBH8f+LavzeTsrNi0LlTrRFgye+uUNjaOUvcAf8ArnHoWels0OaU1MyxMh/x6XzV3tYld6pnIXBeoqZPAhY37byfw1cyqq84nTyPl+o7lk8rWD9R3LJ5VlDeRqbiZZIeM4vJy9grQCz/AJIeM4vJy9grQChW5xKnkFQOWDjOTyUXZV/KgcsHGcnkouylHnCpkQ+k79njt7QWrllGk79njt7QWrlOvuMU94REWuWBZzylwlmFKoeE9jhudEw+u60YqPy2UBZWxzfJnhA/jjcQf+rmK2i/qK6i2EIwPPwdRDIdUc8TjubI0n0BanWTCFpbE3C4qqKCYG7iwNfzSM7l46wesKddZMxTe491ERa5aEREBUWXibuqNnNUOPXCB/UqpUvyqYXFThB+Ybx07RCCNRc0kvP2nFv8IUQW5TVoo15O7NE5L+K6bxX+1eiZL+K6bxX+1ei1J85l0ciVIiLBIIiIAqjx5Hw2b/j9m1W4qvyjUxbUh+yVjT0t7kjqzetdbQ0ksQ12p8U/Y5+k43op9jXuiIvauB7F21xvavUHCPTxBb+8Id8nYcrrVNYit+Hw73+zcrlXmdNdPH7feR3NGdE/H2QXlYQwFSz6ZYWOd4Qu132m2JXqouTCcoPWi2n3bDflFSVpK6PCwTizT08hkhzw4tLbF1xYkHkvs5V7qIs1Ks6ktabu+8xCEYK0VZBERQJhERAEREBxzSBrXOOpoJO4C5Xi4JxwwdUgcDVQkkXzXOzH/YfY+hephP8AwZfJv7JWVWDQNwVtOClchOVjWLZGnUQeldDCuGqamaX1E0UbR4Thc8wbrceYBZeZo1aN2hLbdp2qfId5HlO4l2ULHE18rWxhzaWEnMB757zoMrhs0aANgJ5bCIopBiXivLXziNtxCwgzSbGs8EHwzqA6diuVoor2tlpZGcFGKhMzhZ1VIXDl4JncN9Ie4czgrBXBS07I2NjjaGsjaGtaNTWtFgBzWC51pSlrNs2ErKx8v1HcsnlawfqO5ZPKvobyupuJlkh4zi8nL2CtALP+SHjOLycvYK0AoVucSp5BUDlg4zk8lF2VfyoHLBxnJ5KLspR5wqZEPpO/Z47e0Fq5ZSpO/Z47e0Fq1Tr7jFPeERFrlgUIys4DNTQl7BeWlPCC2sstaRv2e6/hCm6/CFlOzuYaurGTVNMm+OfuGQxzXNJMQXWFzG/VwoG0WsCOYEarFlIxOdRTGWJpNFM67SNUT3H/AAncg8E9GsaYWtzZJFG2LNV0dVHKxskT2vjeLtc0ggjmIXYWWsFYYqqY3pp5YidYY4hpPKW96ekKQsymYWAt7oaecxRX7KodF7ixVFvNCKtMoOUSOJjqaieH1DgWulabthGo2dqdJu1bdOhVfhbGmvqRmz1MrmHWwEMYRyFrAAeldDB1BLPI2GBhfLIbNaPWeQDWTsU40UtsiLqX2I6+abX025effyr8U9yhYusoKShgBDpC6d8rx8uUiIEjmAs0cwCgStjLWVyDVjROS/ium8V/tXomS/ium8V/tXotKfOZesiVIiLBIIiIAo9jlgY1MHcC80Rzmc/hM6R6QFIUVlKpKlNTjmiFSCnFxeTKFRWRjTicJiZqezZTpcw6GvPKD8l3oPNrVe1lJJE7MlY5jxscLdI5RzhewwuLp4mN4Z71vX7Xev4ebxGHnQdpZbnufzsPUxIb8Oh3v9m5XAqixK+PRb3+zcrdXD0308ft95HV0X0T8fZBERcc6QREQBERAEREAREQHDURB7HMOgPaW33iyp3COR2pb8WqYZANQkDo3brtzgfQroRSjNxyIuKeZnybJlhZuqBrudssf9RBX7FkxwsdcDG87pY/6SStBIrOWkY5NFQ4DyPuuHVs7Q0f5cNyTzGRwFuhvSFZ+CcFw00Yip42xxt1NbtO1xJ0uJ5TpXfRVym5ZklFLIIiKJk+SNCok5J8Kf7X7139ivhFOE3HIjKKeZVOIOINdSVrJ5+A4NrJAcyQuN3NsNBaFayIsSk5O7MpJKyCqnKBiDXVla6eDgODcyNoz5C03aLHQGlWsiRk4u6DSasyioMlWFA5pPuWwc0n312oEHwFeqIsym5ZmIxSyCIigSCIiA4KqnZIx0cjWvjeCHNcAWuadYIOsKrcZskVyX4PkDQf8mUmw5myaTbmcDvVsopRk45GGk8zN9XiJhSM2dSSnnjzZAfsErgixPwk42FFU9MZb6XWC0uis5d9hDk0UTgfJRhCUgzmOnZtuRI/oY0263BWpitijSUDCIGkyOHdyvsXu5r6mt/0iw6dKkSKEqkpZklFIgWVHFSqrxT+5uC95Mudwji3v+DtazTfvSoH+ybCn+1+9d/Yr5RZjVlFWRhwTdzwcSsFyUtFDTzEcJEHB2Zpbpe5wsbDYQi95FW9ruSsEREMhERAEREAXXqKaORubIxj28j2hw6iiK7DdNHxIVejkV/gyFrcKRhjWtHd6GgAf4Z2BWQiLoaY6WH2rjI0tHdHL7nwQREXJOgEREAREQBERAEREAREQBERAEREAREQBERAEREAREQBERAEREAREQBERAEREAREQBERAEREB//Z;" vertex="1" parent="1">
          <mxGeometry x="162" y="1343" width="92.95" height="31.14" as="geometry" />
        </mxCell>
        <mxCell id="wZwStunDBRkNG8TW0eKS-172" value="Glacier (Backup)" style="sketch=0;points=[[0,0,0],[0.25,0,0],[0.5,0,0],[0.75,0,0],[1,0,0],[0,1,0],[0.25,1,0],[0.5,1,0],[0.75,1,0],[1,1,0],[0,0.25,0],[0,0.5,0],[0,0.75,0],[1,0.25,0],[1,0.5,0],[1,0.75,0]];outlineConnect=0;fontColor=#232F3E;gradientColor=#60A337;gradientDirection=north;fillColor=#277116;strokeColor=#ffffff;dashed=0;verticalLabelPosition=bottom;verticalAlign=top;align=center;html=1;fontSize=12;fontStyle=0;aspect=fixed;shape=mxgraph.aws4.resourceIcon;resIcon=mxgraph.aws4.glacier;" vertex="1" parent="1">
          <mxGeometry x="871" y="1212" width="60" height="60" as="geometry" />
        </mxCell>
        <mxCell id="wZwStunDBRkNG8TW0eKS-174" value="" style="shape=image;verticalLabelPosition=bottom;labelBackgroundColor=#ffffff;verticalAlign=top;aspect=fixed;imageAspect=0;image=data:image/png,iVBORw0KGgoAAAANSUhEUgAAAOAAAADgCAMAAAAt85rTAAAAkFBMVEX+/v5yS57///9wSJ1rQJptQ5tpPZloO5hwSZ1sQZpuRZx5VaJmOJduRpzBs9KSd7O4qM2vnsehi73q5PDTyN/59/vw7PR3UaHAstLOw9yGZqvk3uzd1edlNZb18/jv6/OagbiAXqfe1uiok8G2pcuUebWIaazIvNiNcbClkL+Zf7d9WqVhL5NcJZHVzeF7VaXXlw9lAAAYkUlEQVR4nO1dCXejug4OAowhkD0h+7416c38/3/3LJnFgMnSdjwz70TnnjttIYEP25IsfRKNxlve8pa3vOUtb3nLW97ylre85S1vectb3vKWt7zlLxMQ8qfv4XcIpDLs30b/RwgVXNtJZ3e4soX3Ofj3Aea4RrNBq7ue2g5jzHcjm1uWc/pnAWa4GsvV/NT5OF8tX+DyA9sSwFJx9/8cwAwXDdjuMm3aHnMELq4CSyX4+GcA5sD6t9O+d95YnufQRNTgyiS6/PUAM2Ar1ByXqRWGzHED274DKxf7+LcCzJbYcnZrdXvHOAy9VHO8IDz+ywDmuPpCc+zOhMvxX8WVi9f4KxDmqn41G4y7lw0XGlFqjm9KuPyTAHNcS9Icx6vleLTCdBqxKjwQg3v/TG/2JwAqqn47Ge8O01+uxKVV9XUSsWav1Wn70b2T2M0kwNw2zwan7vp8DXCFPVL1NeIftvSF/QO7B3BiBGAKrD+f7D8Om2CRaI5vLDG/R7oIxHe3FvXf43dMAATUHOtpsEBVH3xdJSpib3AnBLsh/n/r1FpFd2cE4DEkzfFzwsM+3jjM2/TPyqpbiMHaCMBe8OB+7eg1+N6Y7hsaizkhHDVrENpnIwA7/r27db1r+zBltdqwOqPddnLbcDxIpKtY/4TsjQlLD5N6RWczu9tHLdRv659CFDS5uHlVIUXXYQpw58gfYebUrOyhCYBzrwZexDanoYycAKxdzRneehbb68ixrhkA/5q5J7D/TCw5TELtFTwjAEfai3N3cZhncSHxb7MyzWxnAL3pqOmMt4kbID7Uy2cddBat9PM97QyQ2uh3Axy61fnDXWe3yqNesBWztDzNongFwy6Muw04bza/LGcRNnczJVQGY++cPaBYN0nZ3ATAxrVybR53V0v1HGGRSwYt8GKciwDyP3IVSpFAODE/DZzpF4IZVwbaFRXJo+CgPly4DcTt96/pINqM9waV9VOOc8LWy30VWGuskdP6M4aQW+r8xFMaONeg0bGY2CDY3jRVPve/eOTacbokYaXRpG7XCMB9WUHah13Jz4fLjObj8HSwvePtEbrkMFxtZ5wN4UdVD0c9IwArhtAOx+XZNpFeFUVuH8IbDuS4wc7lbHlnCKO2EYDzEkBns6osr2W2+34iowDD3onc7W2oYIBDZRXaUyMAV0VDGPY0GGDzSpQWoBtvUa1ObctL9QzcKoqUN41Y+kYBoHCVNReFjvWS3win/3pCEW0d8cCS9QzDiqvAAyNRmYIRtvct3TYUZv+9Fl+AwWc8g6EvPBw/ddgOFXvkGUkwwVl5tHH8qXuqMOQvKgRhBb3BDGelbUmPDLoVPWom7FQ0hKysQZOT2q8+bZgxd01jxm3CAeOKQ8qMZNAKT9Zu6i8pPGc98jvfu023kdw7oRtX3VqbyaDByVGeac0lhcq/vnozwgHlKcLzbdWq7igMhZ0UQ8j9moko9IX38uZG2QdGzHEq+Axl0KCf2wlu11kDOLLXHzfs78VFBeyDEYDDhTKCdZYJPpzX/Q7QbFVUMePKNMDPDWGtXoOWs3jdLMNSF+rIn2eNSvthQY/q4aSBG3s1l0C24U5MC8WEryYMoTKP6uIkYqX6L23fxMYDEn+0fgTrdNrPCnQVBV63hREbipcCtbAPF+FF7K1qo3Yor2vmrwgULFSon4gYfQteYF/ByLN4JHaWYttbD9BMBk0sL3XaxNp1AX3PCnUTqoZ0Bjt8anwxuBs6r/MrflagX1AE7lq7YRowy9tWA00wHC6Huh3khRwzbsHszhz1X/X/viSwLEYTPO2GaedWbAjActyOHc/dVJcSjKXnEm6H9fgMhZ0aUEqme9V4pVhKvBzHhOEudCLOrUijfWAoHVFnfE+PmsmgNWBTvAVeRUj2rOj8Q99OVpeWswR7JxmjS703Y4gMlKwXBWFYClzAEnMPhRGEoZU9Fk8TwRVjHkmAH/UZSP7LDMBuRdGFOyiA2eDNeoVw9z7/kFAlmm/tW2ILIb6oupPPP1jr3P+opApBFXZe5bmlWUyDEKoGpBDK0bqpMBqfTvv9PTvBXTOuzEDjMAZBJ8mqDLseTcbgUhhUNSsVVkKpdI4UzePLxDHjymhNFXes7gyHwZIjYDP1acPSV0fwjtMMgzuGkJkJO400OUKE6HshCxMj6ZYeNij5eXtz5zZhWJOjJ4Bmwk4NPU2LcyfhzdjuYl0apEwz8cj5vJvog5Vfy75xjLgyFUOYzZ/TkYWMeeGm26+k/0Y4tLYfNtfjBy4zDPQ5essYcVsTdEbxZkLDzOa3mTYdCJMw8Kad/hMlHrCr0zOGiNvoaOpGsJ+lp7WfGqxnT6DDM2umiKX18n6D1Ghy9kCHPwVOntln+mXIX462fkm0hvBHdTh09LEZ7pgBqN+zVfd/X79C3Z7CDHFbasTqCP4gzaNu3+tpfaCfFmGLdQB/yEjJlQo9rSIzRNzWT6DvMlZTMjFBhJVWzxgibutD7N+KrFNFzGS/Pm+u1yOxorTG1lANmn5TytnXNQA0br1myLDQh3PK20BLZ4t8Q65MjSH8MlsOWrYX5CRLjC3p1YwZ4nZdCuHLV4fbp7rgKPwJQ51HairsVKPE7S9WEkNHnRGS7yT2LLorGAo7jWqs1Bd1HGwXyre4xEkDaGrUqKEaNA1LR86tr5p62IcZGi59Wgqtap6hGYA17v7XlTgMojTW5MiVXLOtNlSDVpNrdrtfLueHYS8k2xNcE/JhQ+/wGgk71dWHRG34clwPYNYLPRbGyTeoZAdF2Py5PeU3pSZ4yYPl18cQPbTtbZ6FV/V7Mn98259//yjW5dLd7hRq3OHntvL56NSEDSyXuYvfT7+Hrd5OcCvqM+0shfFTflx2Tn3YwkgetKY+BIPrXdbUQYFdlRmsOStLy8CsNrRmgtIFjbr6Ih5zdtIF1eCyaD2aptDaPJihkRsZyYPWWGE5S4U7pVmHAuHncXUXIgz+Sz0FWJZLlu3AYZ7d7qwjIw7pXdJVOLtqEfYWi+6dlQiDRSz3u0KUFB2PXBZ604/xfClzM9wApetuoaR9nOrWobjrhWPp5q88evKCHqEbzU5dOYBi2Lzw16U76Ge7faG/tfnFH5ZqfUgBIdfHZ+AU2myjrRQB2HncCqL17hi7nuPaOGz2sdeiYVOsx1wAdH9/bO0RqYzH2nuAOY+4Nx2UIYpRO9KOiQdBFIlhc66H/aQ/rAbKYYbZ/9+fB63Uh5SlJjokgDAr8jZjNX8hfmyhdqTVxqxNT6y2RgVacu7KMZImLNeHVKQuTSIWotgZ2Y7fu+XdBiYbJJH4jtXuaodN/TyqVwOVhKX6EN0c1Y+gkC3uZHnEnEP3dLtN9heHodMSdpZ3odFV5UbfRGwNHvWqYJWNG938anY7daUGFhMSm1K5UmEu9o/Taiex9nCjb4KdDscH5fKVdQLj9TEW+oP5gcXLbYD4E2UIAM2VZJSaiK097BhQCV/AwbEFsMhnHouPG8/NMXLHfiL5Drf/xEPDgLCJ/k73+DokTnkaoXPCm8d1Z7JFwuF8t3EYti+JfO/X/plABByRnIpP9i6L4YekUB+ikwqjGT/hZQkI/N9q0m1Pp5f99rnN4pyhciEXwzUA8JEhrAK8sRJHFjJ56ornCJULRdUXvz9qgZTe+1O0UvjaD7+TI8VgM+6T4CSerJZM/LMCwwcAK5k8GDr8GzlSrHnFfRIxqk2kCUFPd0ql6vFDo8m/bsAoyIYJOkobmEgT3q1w0ChRXET21w0YmSUsfYFVhWv7e0TbrEAZwCrfDtbR0wasSpRC15BzbP4UcCOMp/uGUMPjxk88mwSGYWlfLEM03BXuKhIETDCe9BnYdILqmhagIXySsgudz3ORjSkz9khhxHCQEVfmVm8Io6l2K4eG8KncCeKJ1Ar2NESDDi4ufhOFdqX6kAK+WAsD95DP6XeivXOWBeHEupPfjNqT4l22AYDLOjthW3ozjPmipxitMJebzchJBjFLhZCvhvo0NMB4ghp8UVxX2Au/+DM9YfICLTGISDzNiUdIsqDpqmd9/6zUJA+Ca+0yE4bwmaJCGOeTPxL2FPI/oB0lZ/QHeXH191GuD5HP+FhPOBeT64mgdJG/ztl0lZckIJOf9jEmyNua+hBsLXbHzxc7nSeqJsssNdvLXQry1TBxaKL9kYYNxLPAir5IcMK4NvVUOGleCWepWYLEGTVRh1Y1hDwkFzHb0Gr6UnH/QZ0xwOZeqbkHMmIZGGh/VNkR2i6tfBhgQ9UonvZOpX5HeGuP1J+qYXQAha+G9Ysm2h+V60OCOE2dY33ParJ2Pr1jwaUECB/FbDOTXgdQPDMsoTTiyjQKtNhgsyxgwXpPzryrqs+FOqxsdIozuYYHmwnD3kiUmzRh6VVDGG00reGGu9BWA7pJWKVw0uQyWeZdEe8kriVA7El3FKuUGegZoFJWI21DKYC5w72LwpwIStoBhq7LFsdOUlFxh3kgBc0DOaMmOjkqaXTOanQHzBzLP2cD1PFLhlA26rR9xne3ITzQMJY0D9SKwTPQyVExhDWdjxrSrDnpGApDWIzZ5mVK3GVBu/UAnkxa0YM10ckx5yLZ13r/BWs8WGKWYcYKsQxYqnqKR3fb65LgTpf2Fibq0HJa7D3PEFAnhHJCwYhxlSf0SGdWhXw1dEaNuDKjZATv93nBQiQ7TnrjCp2Tb3k13e8eCUYjaeYYoZKk27QH0U5cM0kUUewI88VTMqTPSQiSR2akKXUaGn0Qh8C9P5cdiIVlUVtsPl5zVYDCaFIMeGOCVHlIOr09iCRhhFHudMVPWewXu1F+ASD6avRBE5Z+J1uIPGq1hLqFk28lLEvaJQng12st1bkd+Myz0FdDJ9gxwG1ODOHjXlIYBae1J/RDagih+yDBqIrtOl60WXduI/GYoPGLG3JlUjbQo9mC6lKMnBChUSVF6KHXmY5b5DPGp7vTLOdg0No3kn9JDOFDXg4A8g6Qgta2eYCG8B7fNRu2wGHMOuwHfZUVhD/h2jfRHQiWchQe54wwlslDjyHxgHjz95vgiWFzwnDzMd6q1Bn54+rW6aF5MdEdKK0P4Q+5/iq1jaLTs7oqZGRhhPGhO+lXoC3FDDg6nifffmOESpLOM1sfq1fOVCjQtOPR5N44ahJ/2hvflGGTPw1Xg866GSAJMXsuRhodZrTYKH5UYo6vYUA1b1Nur5h746RJ4rPQJMMyNjFsu2PMmB+UXisTmSjTygsluf8g1nKIeNzrTPoHO1pDvtPiSHkNrpfOYDUsTcmGGLbLxi0Mm/pUTJTUK/Uh3Lsba5bJT6IqIyGZeLvInQw2H63tqLzchtvT7myF7N4Lt+xH/tOPAFR0B79bW4d7ebTwlDYVAOf/hS5yJxslaNAf7NfN0HNqX5xjB67DvDD8dTYBsFAfcs/nzgDeGMZ+YXkbVVbbtvUxDbGOV1c3KNSrABYugum6O75Jq//b8SnKkRPHuv6ZIkAMZWL1eNLUI4c27E/2B8thumGzI6GaWMia5173dEvZsqbeWQsNJn3gMNi0d61BPf9I+OUUjIYlxTZTbI3RvNWb8ow0Whowz7M2baGa5qthwyiw/L4t93r+GA/6wzqOdXri1JYBQ2E6hdsth63bvjrF1cbxcQlgfrw57MaT2SgbMdPI0vteLZ+6AdzCSd9KmE63ux33jnbouFFq27jUHSyIp5dua9D/48DyO3+SKSjUrXT/MX7hitWWNg2nJcYc69jbn+b95d+C61WBo81lsUNCr8mUfXvXmWxN644fF7iFqWsFg08WhvZ0vRsPZqN/dcBKAo2rncXVRi3jyv6npZpl2jlWFvD9l5Elsizx6KDL0vYG/xcCk7EyRGIL3maWxfWVvf+mwJqPV+kq2/ZCtAgLM28oNSMA50UYr7v7/e7MPNwx2gsjb/UyJgBi2ALfd6WHabOmiffOmRSASTN0AzvCYsdw81wJ/b8l0Ljt1+fj8dwbz/51q6AXUORP38tb3vLb5dFU/8pSgKrUnXPnI9Wjj66ivUhjOVrJTbD+HobZ8adRwslq5nKdXvbzajnKMhbH4jSGDgP1I4lY+btn8WS7SBiCS6xe5dgbl5sDi18Hu2lsu35gXS+tcjMMgWjWOVytyBfHm+fu7em8L5wYV8SOfC/elzsvd+ictDMs8l0rklKEYOTY4lenmDKBdlC4SuB700mBnNfoxB6GNoRYPHDYpZAjADhtPEe4E/J45HrOs2x1TWELd+ICFRzLyfDv7kcGsBrQTDkHaa97u/CQND0/7PCcnwL9azENRfUi+cf7G68UaXy6qZUEaPtSkoJiuxC9TnuaY0WRBPgpz6abTj66SF9WnpSls1YVYJRcJImvub+y92PP5Nt8OdWjy+/lYUYBgm0Cz3YZih/wFwHax3GHpHv2iArP1RlAbyLEvyY8GbEaSMb4xgi7nXx0m4DHPZNdZn0RwKgnT91/bBay81jCdoUlQeYs3p3m80GnTRsTK0xyu7CS3eb88Lw/3ea3SafHw8+XAAa9TLkNx3SxIM/KUdsM+8iJfqTEqYFSMn63oBYxrc5jrL0vTgIEyG7ZVVY9umdPQoALURHtSXYYt5bZqzJhSv0vvG4ei4P+7lWA2e+wohd45wkIelVu2D9HZepfClD9E1IO3B3S2AutsiXAgXKVCa45yduQndW4UigE8jXgssmoXCH4Okb1C59vdV0C2EhI6BkJjuo37A0Rx4oMah1ArDdiM8BsmNqOuwywkTSqpMIWWZjBCpxoqvqR5bOAj5YXDr8iVYCSp5m9M5JymNifCi8Zzgr3WAYIS486Z9Ldux93AVK3KKrwpIKXoFgpKCmcVGVHJYXulysldQBx0WVv5KPLuwlLtzjUVYD4F3wYeFNc4ShVAcpGAJiAl6mrEh0mYTm1Es7hN1odagA2AHuNJaQYokJSrRRRLdTMWQUgvV+emLA0VRUuqw4gdiCwN8j3Zpp379InZI2WX9DJta7eKwCRVJEUPtAKILA0c9XmwlWAE/EwfPRh5DoO7gKk5qzCHyDeayUTTwsTM3F02bzUFVYjktW3AJ4zChX0F2k/WuqIzZU6hipA/JzklkFR6eoAovLiOPfxayotb2npE+8XX2qbFSvD/NMhedkOVgHS7ajEcCK9KMyqMkBifCXWgWZ2ftdagC6+T1kAROeuwnuVDogYV6ruy7mZSfeXx5ykuwCn6RSll/Dgi+tIUPlE03qAZCMGyRrZqEpXCzCdojRW+hHclEYwr7f9HkDLStddi8l+sLMJCirUvJChBJAq+9HZGZ7EqQMsesi+VwcQlyn/RTZf8/6bbOLSHEqZ2zDGGcq/CRCGqJjRG5XjgIVSGw/Tl/jNynovARxLkry4CfSIyb1KGz7pABIuRIAvk6z0Z6PpEKRcotTDgMHpdJqgY/wtgOhp8QiLA7GIUagylfSZF78UAZKNsBajwiskUqWrA4g0YrwwLLE3dfk1JNScGr88sYNqzir+LkB8eLTqibDpiVXVc+VO1So4cUWAeCP4MLYhz05OB0bjyRAV38dNFflIJUa/rN5H7SbXqkqq/C5A2SsO85j0ShYeo2PiBiS0xKNkG1cCeJS2BXpMnku7kkTpagASi21BnFJk7PG4WGNJ9VKUqqIiNP5L2R1/DyDQndJEzE37MBEi0KeFwwWAUmfEuOFKBW8sWTwVgNDHZyWPyt2Er74YT66JxP7So3B7uS/zdYA4wZdnfHZU503O2UIykxMhz76pA4gPg9LX2bno1yRKtwAQj82p4Vq6H2yjcfP2kG03Z0TOk7w/cRv4i9NLg2FfABilG97GrBsEVtKmnboqFfmosmA52cuqAOnVl8UXBGNDhHSXkAKUsrxdaL+bEfPl24nYcdBIdrP0e8oUhROpODceJ2SG1+0gt2ISK/SkIV1ki7/s5aPdSL0VFSDOo/KWh76alC4B5PIicRAyWYeRvbkGWgTBZmx6uJytkG7CdrPDPYpycSeMz5cDNYB8NeiU6z36pgVNNWmfStqbImoL6W+qAJu8UswItCshL0sGnXjhMoGjlG+NF0lYKYoS6mjgKoc/kncAcDz+BU9GFW4zS/rZl6BavgeAAQ3pOSkApetZLjOifS93GqAJGwZhsVPOLWbKKTwqHZ5YrMCZjV5wtheOIsxzzidZ0bH6T/zulZmT8nx69yXsxY8LCfDsiR8rHdaWHvr94s90XLlKaK3nxacBjdYU+z1GwhY5XnCoHD6dhSslrFWELD427Twb2obZuJXJuHXapqXSsBUHxtUX0w7H49Z4TI7qHM+QPjn9sVqfPcAzsDfMJL+KOHUyq75lGYNpk87Het3rtubaw8vbuNuj47e8nvsJhHVZkZqNs3JW+ae6k+9dpeZWHt3ps+je8pa3vOUtb3nLW97ylre85S1C/gdy0YRIGxuOxQAAAABJRU5ErkJggg==;" vertex="1" parent="1">
          <mxGeometry x="581" y="1530" width="60" height="60" as="geometry" />
        </mxCell>
        <mxCell id="wZwStunDBRkNG8TW0eKS-175" value="Dashboards" style="outlineConnect=0;html=1;whiteSpace=wrap;fontSize=12;fontStyle=0;strokeColor=#9673a6;fillColor=#e1d5e7;verticalAlign=top;align=center;spacingTop=3;" vertex="1" parent="1">
          <mxGeometry x="360" y="1641" width="401" height="37" as="geometry" />
        </mxCell>
        <mxCell id="wZwStunDBRkNG8TW0eKS-180" value="Automation" style="group" vertex="1" connectable="0" parent="1">
          <mxGeometry x="874" y="1324" width="60" height="60" as="geometry" />
        </mxCell>
        <mxCell id="wZwStunDBRkNG8TW0eKS-176" value="" style="whiteSpace=wrap;html=1;aspect=fixed;fillColor=#f8cecc;strokeColor=#b85450;labelPosition=center;verticalLabelPosition=bottom;align=center;verticalAlign=top;" vertex="1" parent="wZwStunDBRkNG8TW0eKS-180">
          <mxGeometry width="60" height="60" as="geometry" />
        </mxCell>
        <mxCell id="wZwStunDBRkNG8TW0eKS-179" value="" style="sketch=0;outlineConnect=0;fontColor=#232F3E;gradientColor=none;fillColor=#FF4F8B;strokeColor=none;dashed=0;verticalLabelPosition=bottom;verticalAlign=top;align=center;html=1;fontSize=12;fontStyle=0;aspect=fixed;pointerEvents=1;shape=mxgraph.aws4.automation;" vertex="1" parent="wZwStunDBRkNG8TW0eKS-180">
          <mxGeometry x="9" y="11" width="40" height="40" as="geometry" />
        </mxCell>
        <mxCell id="wZwStunDBRkNG8TW0eKS-181" value="Automation" style="edgeStyle=orthogonalEdgeStyle;rounded=0;orthogonalLoop=1;jettySize=auto;html=1;exitX=1;exitY=0.5;exitDx=0;exitDy=0;" edge="1" parent="1" source="wZwStunDBRkNG8TW0eKS-143" target="wZwStunDBRkNG8TW0eKS-179">
          <mxGeometry relative="1" as="geometry" />
        </mxCell>
      </root>
    </mxGraphModel>
  </diagram>
</mxfile>
